<svg id="log-new_Image" data-name="log-new Image" xmlns="http://www.w3.org/2000/svg" viewBox="0 0 245.76 345.84"><defs><style>.cls-1{fill:#cda9ae;}.cls-2{fill:#f4802d;}.cls-3{fill:#fee9db;}.cls-4{fill:#090e14;}.cls-5{fill:#030303;}</style></defs><path class="cls-1" d="M245.45913,345.817h-59.6794c.11346-.65274-.335-1.13418-.54415-1.67818-2.01494-5.24154-3.97587-10.50645-6.12367-15.69361-2.01144-4.85782-4.28029-9.60839-6.34233-14.446-1.66312-3.90175-4.77726-5.733-8.74278-6.31355-3.28346-.48074-6.61027-.13612-9.9152-.2456-2.72986-.09045-5.34349.65163-8.00127,1.043-1.95365.28769-3.85512.9303-5.77983,1.41473q-.05364-3.90618-.10721-7.81206.0093-2.22075.0184-4.44213l-.007-5.5535.01437-4.53351a1.0473,1.0473,0,0,0,.15091-.3186,40.267,40.267,0,0,0-.16434-6.16992c-.03665-.574-.46742-.675-.91858-.73543q-3.63879-.488-7.27806-.97228-.00311-9.05045-.01378-18.10088a.74749.74749,0,0,1,.73256-.87366,7.51435,7.51435,0,0,0,2.37767-.75154,9.31868,9.31868,0,0,0,5.11682-8.65973c.00655-.81019.19679-1.04663.99914-1.19135,2.23013-.40231,4.45851-.8594,6.64416-1.45451a117.94633,117.94633,0,0,0,15.8475-5.4957,103.11,103.11,0,0,0,24.27539-14.84361A107.63128,107.63128,0,0,0,207.28,207.57224,116.72706,116.72706,0,0,0,217.50126,190.526a109.84942,109.84942,0,0,0,7.13593-18.8526,93.315,93.315,0,0,0,2.80346-13.081c.52127-3.97732,1.58238-7.89219,1.27073-11.95732.29835-3.61724.70743-7.22965.86624-10.853.187-4.26718.02428-8.53863-.10591-12.81252a101.68652,101.68652,0,0,0-2.38995-18.48462,110.75789,110.75789,0,0,0-7.31153-22.49666,119.49518,119.49518,0,0,0-10.14315-18.43481q-2.74816-3.98839-5.68115-7.83732c3.05459-1.3067,5.248-3.70881,7.56-5.95767a22.70627,22.70627,0,0,0,6.97019-12.90979,45.50882,45.50882,0,0,0,.07552-7.77121,4.786,4.786,0,0,0-.43457-1.61033,21.89674,21.89674,0,0,0-3.82155-6.59152c-2.48248-2.81237-5.377-4.80974-9.41875-3.72769a14.24139,14.24139,0,0,0-8.01016,6.07556c-2.25761,3.22063-2.62713,6.969-3.0992,10.67657-.43273,3.39882-.68474,6.82069-1.01639,10.2324a12.18776,12.18776,0,0,1-2.32594-2.02047,92.35815,92.35815,0,0,0-10.12744-7.773,110.75727,110.75727,0,0,0-13.33359-7.64477,107.373,107.373,0,0,0-13.61842-5.43871,88.83654,88.83654,0,0,0-14.04481-3.31281,100.3308,100.3308,0,0,0-11.64146-1.19719c-2.83709-.0843-5.66264.14723-8.48818.05724-7.53517-.24-14.83918,1.27457-22.05107,3.10349a81.72943,81.72943,0,0,0-17.76475,6.50211c-1.27308.63977-2.54958,1.27284-3.8187,1.92041A102.0305,102.0305,0,0,0,53.9993,43.30051,107.515,107.515,0,0,0,43.16149,54.5447a128.26885,128.26885,0,0,0-8.706,11.77557,121.88007,121.88007,0,0,0-7.65625,13.89561,7.05235,7.05235,0,0,0-1.10737,2.87728,3.2756,3.2756,0,0,0-.46777.67875c-1.01418,2.76558-2.2104,5.45892-3.11092,8.272a127.93815,127.93815,0,0,0-3.898,14.89359,118.52679,118.52679,0,0,0-2.09768,17.91274,185.5679,185.5679,0,0,0,.84683,22.20808c.01539.556.01228,1.11321.049,1.66779a112.47259,112.47259,0,0,0,2.85776,18.64823,115.173,115.173,0,0,0,6.24962,18.65007c1.31063,3.0598,2.90195,5.97669,4.31954,8.98064a20.63891,20.63891,0,0,0-2.5314,2.692c-2.006,1.98926-3.90423,4.08693-5.87764,6.10991-.6657.68243-.6731,1.14873.05024,1.84969,1.51586,1.469,2.91613,3.05729,4.3669,4.59371q8.16984,8.65227,16.34,17.30425c2.34786,2.4905,4.66988,5.00538,7.017,7.49663,1.72253,1.82834,3.46775,3.63528,5.20077,5.45374.645.67682,1.19776.85222,1.96794.03984,2.38745-2.51823,4.851-4.96422,7.285-7.43825a7.35354,7.35354,0,0,1,1.14864.561A89.854,89.854,0,0,0,81.316,242.594a97.80368,97.80368,0,0,0,22.31275,6.989c.93856.17288,1.18385.56542,1.18133,1.48984a9.15088,9.15088,0,0,0,7.04485,9.16377c1.0067.25294,1.11208.68017,1.10745,1.53828-.03164,5.86751-.01849,11.73531-.01977,17.603-2.46656-.0557-4.84456.70979-7.29956.78655-.7666.02394-1.16633.40738-1.13583,1.29878.06914,2.02084.0235,4.0456.0245,6.06881q-.0008,2.26317-.00151,4.52628l.002,5.355-.004,4.57265a4.977,4.977,0,0,1-.20647,1.87254,4.49558,4.49558,0,0,1-.949-.0627c-4.64887-1.3109-9.08753-.42767-13.34119,1.48012-5.2632,2.36061-7.8875,6.66972-8.51079,12.30457l-.061.46106a12.06437,12.06437,0,0,0-.31878,2.214c.09121,2.45606.27519,4.90867.42364,7.36259a36.86843,36.86843,0,0,0-8.19929,7.34646A27.62915,27.62915,0,0,0,68.09865,345.817q-33.42516,0-66.85029.023C.28684,345.84128-.0003,345.70551,0,344.63807Q.04889,172.45284.03058.2676C.5098.27314.989.28351,1.46823.28352Q68.15582.28462,134.8434.2842q54.58434,0,109.16867-.02531c1.15753-.001,1.62009.30633,1.43582,1.46108a5.38227,5.38227,0,0,0-.00646.83823q0,170.73038.00076,341.46076C245.44219,344.61831,245.45325,345.21763,245.45913,345.817Z" transform="translate(0 0)"/><path class="cls-2" d="M81.56461,327.61816c-.14845-2.45392-.33243-4.90653-.42364-7.36259a12.07344,12.07344,0,0,1,.31883-2.21462c.92651,3.4757,1.35755,7.05092,2.10365,10.56079A23.17158,23.17158,0,0,0,86.821,337.15a5.5428,5.5428,0,0,0,2.40291,2.031,10.754,10.754,0,0,0,6.338.33725,46.42373,46.42373,0,0,0,10.39967-2.5776c2.1079-.88256,3.757-2.17127,4.31332-4.55087a25.128,25.128,0,0,0,.72384-4.96759,44.12094,44.12094,0,0,0-1.91208-12.98072c-.57657-2.11369-1.26109-4.198-1.89927-6.29483-.20023-.65783-.52915-1.25182-1.32985-1.03749-.85468.22879-.67843.95255-.55539,1.58658a6.29675,6.29675,0,0,0,.22484.67979,52.30382,52.30382,0,0,1,2.31521,19.27584c-.20891,3.27882-1.6879,5.86493-4.94435,7.09009a34.82424,34.82424,0,0,1-9.1425,2.17118,5.5856,5.5856,0,0,1-6.00652-3.14448,25.00258,25.00258,0,0,1-2.18452-5.65944c-.86721-3.6463-1.7602-7.28642-2.63044-10.932-.20806-.87155-.532-1.36915-1.41324-.59627.62329-5.63485,3.24759-9.944,8.51079-12.30457,4.25366-1.90779,8.69232-2.791,13.34119-1.48012a4.48668,4.48668,0,0,0,.94864.06259c1.62755.9024,3.41449,1.48445,4.96727,2.546,4.94027,3.37758,8.20979,8.112,10.84484,13.35017a71.17991,71.17991,0,0,1,6.11662,19.80982,27.27824,27.27824,0,0,1,.809,6.25258H83.19826c-.10847-2.5915-.159-5.18707-.3396-7.77354A74.99938,74.99938,0,0,0,81.56461,327.61816Z" transform="translate(0 0)"/><path class="cls-2" d="M140.3305,309.8977c1.92471-.48443,3.82618-1.127,5.77983-1.41473,2.65778-.39134,5.27141-1.13342,8.00127-1.043,3.30493.10948,6.63174-.23514,9.9152.2456,3.96552.58058,7.07966,2.4118,8.74278,6.31355,2.062,4.83765,4.33089,9.58822,6.34233,14.446,2.1478,5.18716,4.10873,10.45207,6.12367,15.69361.20912.544.65761,1.02544.54415,1.67818H147.67119c.04683-.47591.07439-.95459.14346-1.42725a100.96932,100.96932,0,0,1,3.66058-15.92036c.42763-1.34931.30634-2.11885-.99018-2.71076a4.64506,4.64506,0,0,1-1.17909-.99558,45.61332,45.61332,0,0,1-5.9502-7.56986c-1.02477-1.5495-1.75647-3.29916-3.10015-4.63465A3.62417,3.62417,0,0,1,140.3305,309.8977Z" transform="translate(0 0)"/><path class="cls-3" d="M140.3305,309.8977a3.62329,3.62329,0,0,0-.07482,2.66061q-.03678,12.08724-.06969,24.17485c-.00484,3.02792.03549,6.05587.05524,9.08382H127.059a27.27824,27.27824,0,0,0-.809-6.25258,71.17991,71.17991,0,0,0-6.11662-19.80982c-2.63505-5.23819-5.90457-9.97259-10.84484-13.35017-1.55278-1.06159-3.33972-1.64364-4.96727-2.546a4.96951,4.96951,0,0,0,.20678-1.87252c3.8782-.40027,7.74893-.85914,11.63968-1.153a98.43171,98.43171,0,0,1,16.8319.33877c2.41486.23128,4.8161.60479,7.22352.9137Z" transform="translate(0 0)"/><path class="cls-4" d="M140.24123,345.817c-.01975-3.02795-.06008-6.0559-.05524-9.08382q.01929-12.08754.06969-24.17485c1.34361,1.3357,2.07531,3.08536,3.10008,4.63486a45.61332,45.61332,0,0,0,5.9502,7.56986,4.64506,4.64506,0,0,0,1.17909.99558c1.29652.59191,1.41781,1.36145.99018,2.71076a100.96932,100.96932,0,0,0-3.66058,15.92036c-.06907.47266-.09663.95134-.14346,1.42725Z" transform="translate(0 0)"/><path class="cls-4" d="M81.56461,327.61816a74.99938,74.99938,0,0,1,1.294,10.42528c.18059,2.58647.23113,5.182.3396,7.77354H68.09865a27.62915,27.62915,0,0,1,5.26667-10.85236A36.86843,36.86843,0,0,1,81.56461,327.61816Z" transform="translate(0 0)"/><path class="cls-3" d="M245.45913,345.817c-.00588-.59935-.01694-1.19867-.01694-1.798Q245.441,173.2886,245.44143,2.5582a5.38227,5.38227,0,0,1,.00646-.83823c.18427-1.15475-.27829-1.46206-1.43582-1.46108Q189.42776.3052,134.8434.2842,68.15581.2842,1.46823.28352C.989.28351.5098.27314.03058.2676.0828.19382-.09056.0176.15042.02529c.31918.0102.63893.00252.95844.00252Q122.8398.02781,244.57074,0c.99325-.00037,1.15329.22611,1.15305,1.17682q-.03972,171.78075-.03976,343.56151C245.684,345.0891,245.96034,345.55113,245.45913,345.817Z" transform="translate(0 0)"/><path class="cls-4" d="M30.44032,195.00505c-1.41759-3.004-3.00891-5.92084-4.31954-8.98064a115.173,115.173,0,0,1-6.24962-18.65007,112.47259,112.47259,0,0,1-2.85776-18.64823c-.03672-.55458-.03361-1.11179-.049-1.66505.74124,1.05944.63429,2.31723.84759,3.50383a118.80654,118.80654,0,0,0,5.09565,19.38267,126.96923,126.96923,0,0,0,5.48557,12.70438,109.30687,109.30687,0,0,0,9.11953,15.37434,113.11363,113.11363,0,0,0,14.05159,16.16344,125.17973,125.17973,0,0,0,9.6805,8.27351c1.90375,1.48,3.95971,2.84933,6.01762,4.17542a108.99118,108.99118,0,0,0,16.73093,8.76722A100.8208,100.8208,0,0,0,98.59557,240.177a91.31157,91.31157,0,0,0,14.47883,2.46338,106.719,106.719,0,0,0,17.57636.13645,101.56649,101.56649,0,0,0,16.3775-2.60713,90.7225,90.7225,0,0,0,19.24848-6.856,52.24269,52.24269,0,0,0,6.93332-3.53582,109.43533,109.43533,0,0,0,14.03956-9.41036,93.26078,93.26078,0,0,0,9.45647-8.6176,113.28783,113.28783,0,0,0,13.32947-16.29752,109.2856,109.2856,0,0,0,10.09565-18.71418c.51137-1.24843,1.031-2.49354,1.5327-3.74585a111.07608,111.07608,0,0,0,5.84136-20.04327,59.63949,59.63949,0,0,1,1.20611-6.31406c.31165,4.06513-.74946,7.98-1.27073,11.95732a93.315,93.315,0,0,1-2.80346,13.081,109.84942,109.84942,0,0,1-7.13593,18.8526A116.72706,116.72706,0,0,1,207.28,207.57224a107.63128,107.63128,0,0,1-19.26152,20.41705A103.11,103.11,0,0,1,163.743,242.8329a117.94633,117.94633,0,0,1-15.8475,5.4957c-2.18565.59511-4.414,1.0522-6.64416,1.45451-.80235.14472-.99259.38116-.99914,1.19135a9.31868,9.31868,0,0,1-5.11682,8.65973,7.51435,7.51435,0,0,1-2.37767.75154.74749.74749,0,0,0-.73256.87366q.02111,9.0504.01382,18.10085a39.08976,39.08976,0,0,1-5.60321-.26014,126.41984,126.41984,0,0,0-13.49319.27776c.00128-5.86768-.01187-11.73548.01977-17.603.00463-.85811-.10075-1.28534-1.10745-1.53828a9.15088,9.15088,0,0,1-7.04485-9.16377c.00252-.92442-.24277-1.317-1.18133-1.48984A97.80368,97.80368,0,0,1,81.316,242.594a89.854,89.854,0,0,1-15.90829-8.92639,7.35588,7.35588,0,0,0-1.14854-.561,4.40354,4.40354,0,0,0-.70263-.7804,101.30881,101.30881,0,0,1-9.45423-7.528,107.65361,107.65361,0,0,1-18.13454-20.79372C33.98971,201.08513,32.27051,198.01226,30.44032,195.00505Z" transform="translate(0 0)"/><path class="cls-2" d="M166.27754,233.31375a90.748,90.748,0,0,1-19.24928,6.85593,101.56649,101.56649,0,0,1-16.3775,2.60713,106.719,106.719,0,0,1-17.57636-.13645A91.31157,91.31157,0,0,1,98.59557,240.177a100.8208,100.8208,0,0,1-14.60223-4.77111,108.99118,108.99118,0,0,1-16.73093-8.76722c-2.05791-1.32609-4.11387-2.69539-6.01762-4.17542a125.17973,125.17973,0,0,1-9.6805-8.27351A113.11363,113.11363,0,0,1,37.5127,198.02628a109.30687,109.30687,0,0,1-9.11953-15.37434,126.96923,126.96923,0,0,1-5.48557-12.70438A118.80654,118.80654,0,0,1,17.812,150.56489c-.2133-1.1866-.10635-2.44439-.84759-3.50383a185.64369,185.64369,0,0,1-.84679-22.21082,118.52679,118.52679,0,0,1,2.09768-17.91274,127.93815,127.93815,0,0,1,3.898-14.89359c.90052-2.81308,2.09674-5.50642,3.11092-8.272a3.25189,3.25189,0,0,1,.468-.67823c1.9783,1.95086,3.69706,4.152,5.78875,5.99243a136.04829,136.04829,0,0,0-4.47017,14.07721,94.618,94.618,0,0,0-2.44553,12.90152,108.103,108.103,0,0,0-.83248,13.96088c.01864,3.18782.34523,6.36326.24316,9.55045-.3793-.165-.09981-.714-.497-.8611-.21842-.08088-.11526-.53381-.40367-.42531-.3146.11836-.26733.37089-.11139.67973a7.82989,7.82989,0,0,1,.48642,1.42333c.42676,1.52229-.03406,2.95671-1.03716,3.27676-1.08347.34569-2.37184-.47471-2.85186-1.95009a4.57965,4.57965,0,0,1-.21144-3.10576c.15785-.41635.09664-.77271-.291-.8758-.53769-.143-.34815.44326-.42212.65573a6.45344,6.45344,0,0,0,2.04583,6.1436,2.06743,2.06743,0,0,0,3.33942-1.103,5.48418,5.48418,0,0,0,.2583-2.08868l.92052,7.13343c-.35945-.12384-.285-.94383-.88265-.60568a.65229.65229,0,0,0-.11642.813c.12258.28425.12066.66687.48062.691a.52659.52659,0,0,0,.553-.60355,13.11678,13.11678,0,0,1,.65712,3.51275,3.21248,3.21248,0,0,1-3.06543-.08615c-1.26182-.57861-1.8639-.179-1.95823,1.18187a14.2417,14.2417,0,0,0,.58967,3.68789,1.33869,1.33869,0,0,0,1.694,1.24881c1.06179-.11076,2.14429-.0134,3.2173-.03189.3103-.00532.77635.17771.76477-.43266a8.64172,8.64172,0,0,1,.96874,3.22472c-.16858-.1599-.32672-.44981-.57559-.33655-.34095.15514-.00157.38078.02209.58109a14.149,14.149,0,0,0,.68621,2.35144c.14228.47866.2905,1.08865-.39473,1.30255-.59126.18451-.98263-.18211-1.20432-.70765-.18068-.42834-.31747-.875-.48493-1.30918a3.21559,3.21559,0,0,0-.91365-1.53535c-.13557,1.02528.47423,1.79378.58853,2.66988.04269.32719.31729.78277-.2017.86836-.394.065-.96048.3267-1.21733-.34384-.13881-.36236-.29329-.72694-.451-1.0733-.34418-.75572-.32384-1.69255-1.26279-2.50679a20.413,20.413,0,0,0,1.49864,4.98919.84014.84014,0,0,0,.34.33077,11.77816,11.77816,0,0,0,4.98709-.6103,19.548,19.548,0,0,1,1.92087,5.25605,5.51515,5.51515,0,0,0-2.37441-1.99855,2.24492,2.24492,0,0,0-2.324.27386,2.01845,2.01845,0,0,0-.77025,1.82666,18.15929,18.15929,0,0,0,1.424,4.29635,1.03713,1.03713,0,0,0,1.28074.62511c.99167-.23112,2.01812-.30026,2.99047-.53991.47518-.11714,1.415.17121,1.47814-.827a16.82967,16.82967,0,0,1,1.27415,3.05583.702.702,0,0,0-.8641-.20056c-1.23224.34878-2.444.77342-3.68332,1.09209-.48319.12423-.757.3229-.56309.77456a.67809.67809,0,0,0,.94461.36606c.469-.17859,1.01289-.17949,1.459-.39369.46291-.22224.81114-.27352,1.1448.15006a1.1912,1.1912,0,0,1,.28269,1.35916,24.7237,24.7237,0,0,0-.99383,3.10263c-.29905,1.111.27479,1.69032,1.34476,1.34164.85406-.27834,1.73277-.45,2.58358-.71048.56115-.17186,1.26289-.212,1.60276-.85238a14.677,14.677,0,0,1,1.98992,3.2775,1.08533,1.08533,0,0,0-1.22172-.15267c-1.16265.53432-2.45367.71777-3.57056,1.36817-.28413.16546-.64.26229-.50728.64675a.62662.62662,0,0,0,.808.33188c1.60985-.48131,3.29943-.77414,4.65678-1.88252a13.49865,13.49865,0,0,1,1.14179,1.61182c.7852,1.52338,2.16281,2.67619,2.68959,4.35434-2.53776,1.51844-3.29771-1.02471-4.73036-2.13246a18.44886,18.44886,0,0,0,1.33719,2.31067c.48531.79505.224,1.19356-.72876,1.27094a1.26344,1.26344,0,0,1-1.15838-.66012c-.54383-.69312-.85581-1.62521-2.13477-2.09927.60195.91309,1.01022,1.55013,1.43609,2.17516,1.44931,2.12716,1.44071,2.09715,3.8796,1.1521.76844-.29779,1.487-.67382,2.227-1.01789.26683-.124.37922-.23739.37379-.504a28.92756,28.92756,0,0,1,2.609,3.6017c-.31005-.16307-.6305-.30929-.92793-.49283a1.21711,1.21711,0,0,0-1.61788.1095,1.26227,1.26227,0,0,0-.09118,1.6268c.29362.50725.53549,1.04449.7995,1.56885.22861.45407.5008,1.04988.06317,1.36537-.53213.38363-1.13736.11352-1.54343-.43178a4.64673,4.64673,0,0,0-.63169-.8377c-.38987-.326-.38682-1.03006-1.05231-1.12106a4.50272,4.50272,0,0,0,2.78266,3.48581,1.50778,1.50778,0,0,0,1.5903-.3388,1.40391,1.40391,0,0,0-.08072-1.55537c-.30151-.54736-.55926-1.11919-.82764-1.68436-.19034-.40086-.32276-.85192.03529-1.18866.39343-.37.76414-.03115,1.15179.15253a1.693,1.693,0,0,1,.87613.89634c.25651.56928.58953,1.10359.8707,1.6625.08644.17184.09542.431.37191.31128.20761-.08991.39911-.21443.20549-.53147a4.277,4.277,0,0,1-.30822-.8695,10.72962,10.72962,0,0,1,2.59688,2.86382c-.14021.055-.45877-.05111-.26406.30269a6.36864,6.36864,0,0,0,1.27947,1.53843c.67588.63545.74222,1.14177-.18832,1.64076a20.16176,20.16176,0,0,0-2.239,1.487c-.2113.15283-.85286.08756-.48587.64762.26921.41082.6037.50032,1.11061.21628,1.3617-.76307,2.65-1.63273,3.93288-2.51462a6.72867,6.72867,0,0,1,1.74943,1.74747,22.90678,22.90678,0,0,0-1.70858,4.69972c-.22642.6984.56941,1.65935,1.26912,1.4912,1.95417-.4696,4.01551-.36375,5.90638-1.13408.97419.23612,1.477,1.14891,2.29915,1.60328-.89445.38651-.11233.68392.10107.87128a20.76063,20.76063,0,0,0,1.86319,1.41151c.7549.52489.43129.92547-.08531,1.37458-.615.53471-1.03058.02418-1.43488-.27485a11.1416,11.1416,0,0,0-2.33983-1.46431c.37687,1.13968,1.40387,1.34951,1.965,2.02961.23862.28921.72342.39772.37412.89011a.91175.91175,0,0,1-1.22967.40877c-.54576-.29219-1.01972-.71724-1.56149-1.01866-.50622-.28164-.84294-.97887-1.82443-.67472a19.07338,19.07338,0,0,0,4.1993,3.05236c.33386.16151.39334-.11343.56143-.22728a20.99928,20.99928,0,0,0,3.349-3.17137,23.7199,23.7199,0,0,1,4.038,2.58664c-.59424.07084-1.11087-.32239-1.7271-.23763-1.823.25066-3.70756,1.633-2.26888,3.72113.91828,1.33284,2.39888,1.97439,3.76106,2.72676a.82406.82406,0,0,0,1.00088-.13422c.992-1.25269,2.30547-2.23144,3.10134-3.64937a20.84284,20.84284,0,0,1,4.26755,2.36527,11.36561,11.36561,0,0,0-2.15635.01344,2.25753,2.25753,0,0,0-1.51391,3.60816c.99475,1.38911,2.56252,1.94989,4.04108,2.61571a.76937.76937,0,0,0,.86648-.247c.948-1.35921,2.33924-2.40755,2.87126-4.05833a13.95375,13.95375,0,0,1,3.88612,1.68387c-.20348.37193-.5707.16283-.855.24618a2.90235,2.90235,0,0,0-2.25859,1.84927,2.3519,2.3519,0,0,0,1.03791,2.69409,5.68968,5.68968,0,0,0,4.31088,1.17074c2.77092-.4997,3.87834-2.40609,2.26237-4.29718,1.90772.61658,3.96891.70826,5.77021,1.68879-.383.39049-.9345.29467-1.39214.48134-2.053.83742-2.53343,2.86662-.98325,4.23166a5.937,5.937,0,0,0,6.70391.07714,2.11177,2.11177,0,0,0,.19734-3.25241c-.15468-.17445-.28482-.3707-.4263-.55689q2.64964.59046,5.29929,1.18095a2.62059,2.62059,0,0,0-1.58379,2.24693c.11508.78494,1.3349.318,2.14072.31617-.39781-.63646-.92644-1.31044.0739-1.82189a3.42242,3.42242,0,0,1,3.64438.83646,1.30773,1.30773,0,0,1,.24165,1.36991,3.47507,3.47507,0,0,1-3.78954,2.01389,3.49756,3.49756,0,0,0-2.40148-.2248,5.35314,5.35314,0,0,0,5.11628.54392c2.35779-.84307,2.9449-2.54059,1.52637-4.57209,1.48761.21,3.1591-.42559,4.38731.98793.29857.34361.91592-.01321.93188-.06478.33288-1.07567,1.20566-.609,1.85045-.647,1.03006-.06064,2.06647-.01316,3.10019-.01139-1.00237,1.52871-1.99641,3.063-3.01486,4.581-.18008.26838-.49347.54235-.19724.81254.35621.32486.66695-.02051.88382-.29464.43517-.55015.81868-1.14113,1.25192-1.69291.37042-.47178.77361-.9608,1.4781-.76933.58083.15788.3985.76162.58734,1.15028.06573.13528.01046.36741.10288.44481.32872.2752-.16609.95263.54407,1.03255a1.52662,1.52662,0,0,0,1.54941-.63991c.38156-.5432.77369-1.08159,1.11411-1.65029a1.16014,1.16014,0,0,1,1.16813-.57964c.54748.03049.5209.50247.63.86658.13327.44483.29526.88276.3992,1.33421.10707.46508.34484.63272.80509.4912.47318-.14551.40318-.394.28508-.8083-.40408-1.41778-.7257-2.85908-1.07876-4.29141l6.71546-.72145c-.76956,1.532-1.56777,3.05088-2.28437,4.60732-.14246.30941-.62437.84854-.1302,1.08525.49622.23768.80793-.30124,1.00018-.76188a4.93458,4.93458,0,0,1,.26816-.52035,12.41353,12.41353,0,0,1,.93913-1.61227c.65357-.83048,1.38229-.45745,1.88343.91821.18153.49835.247,1.08131,1.017,1.09344.68668.01082.97086-.38674,1.222-.91417a13.67191,13.67191,0,0,1,1.01024-1.95388c.47318-.6815,1.059-.79868,1.51406.074a11.934,11.934,0,0,1,.69324,1.46648c.18331.51168.55267.38622.86948.29994.4757-.12957.23707-.48888.13918-.74618-.53674-1.41076-1.09212-2.81442-1.64111-4.22053l6.90006-1.66429c-.86907,1.89662-1.36823,3.91837-2.09477,5.97988,1.37753-.1473,1.26158-1.32773,1.67-2.07243.36339-.66264.40974-1.71314,1.35754-1.70468.80259.00714.86193,1.00955,1.229,1.58332.221.34544.27334.89753.86842.72544.47153-.13637.95942-.241,1.09029-.90639a18.74984,18.74984,0,0,1,.68995-2.10232,1.02673,1.02673,0,0,1,.90067-.81176.97337.97337,0,0,1,.95582.5908c.22618.362.40352.75007.64506,1.11188.26232.393.43173.62779.90061.29092.4212-.30259.333-.60528.11772-.97655-.74324-1.28189-1.47055-2.573-2.20394-3.86063,1.8148-.48557,3.457-1.413,5.21658-2.04C162.43077,229.22338,164.37813,231.24717,166.27754,233.31375ZM19.67974,113.468c-.27851-.03766-.38.07113-.49219.35316a2.10608,2.10608,0,0,0,.27083,2.19686,15.14047,15.14047,0,0,1,1.89078,2.4c.32158.72669.19155,1.24822-.63225,1.52051-.55192.18243-1.06317.50512-1.62264.64371-.92972.23032-.54263,1.05648-.716,1.57992-.132.39859.315.82189.81541,1.003,1.169.423,2.31747.90554,3.49786,1.2918.21615.07074.58929.56605.77345.05511.12407-.34428.26018-.86457-.36291-1.07424-.51327-.1727-.99689-.43165-1.50218-.6307a1.02463,1.02463,0,0,1-.65263-1.02165,1.10174,1.10174,0,0,1,.656-.90308c2.03311-.92639,2.02409-.94358.75233-2.7647-.0655-.09381-.06969-.23448-.14258-.31845-.44838-.5167-1.16618-.99434-.57606-1.77979.57708-.7681,1.15944.15684,1.7654.14147.26794-.0068.60443.37109.79427-.043a.67.67,0,0,0-.30513-.93064C22.49593,114.59332,21.08443,114.03677,19.67974,113.468Zm-1.91218,16.218a7.4841,7.4841,0,0,0,1.28865,4.31348c1.2422,1.46519,2.90548,1.873,3.95457-.30719.96873-2.0132.073-5.60155-1.56712-6.844a1.98411,1.98411,0,0,0-2.74154.16773A4.02561,4.02561,0,0,0,17.76756,129.686Z" transform="translate(0 0)"/><path class="cls-2" d="M228.71138,146.635a59.63949,59.63949,0,0,0-1.20611,6.31406,111.07608,111.07608,0,0,1-5.84136,20.04327c-.50169,1.25231-1.02133,2.49742-1.53294,3.74641a55.44553,55.44553,0,0,0-5.823-6.06678,120.33763,120.33763,0,0,0,5.73711-19.60155c.99173,1.01263,2.41714,1.22422,3.57855,1.9288.40528.24586,1.00139.61838,1.3573.35148.5358-.40184.40394-1.16539.30547-1.781a2.5468,2.5468,0,0,0-.51639-.9022c-.44062-.64364-.9346-1.25347-1.33948-1.91815a1.11584,1.11584,0,0,1,.71581-1.85579,10.34521,10.34521,0,0,1,1.47168-.35813c1.01173-.15215.54392-1.08792.85158-1.61352.26054-.44511-.23058-.81214-.62084-.99392-1.44052-.671-2.901-1.29927-4.35392-1.94358a22.16749,22.16749,0,0,1,.478-4.63018c.36032.54689.55,1.1754.92469,1.73031a2.32784,2.32784,0,0,0,2.3652,1.217,2.11523,2.11523,0,0,0,1.71569-1.73791,6.93164,6.93164,0,0,0-.19589-4.72593c-.47321-1.12782-1.09036-2.1773-2.3717-2.36628-1.27428-.18792-1.811.86141-2.31986,1.81294-.01386.0259-.07239.02787-.11009.041q.00012-3.32676.00021-6.65351c.45464.4665.36134,1.30444,1.03722,1.65331.33134-.50424.06506-.90255-.09352-1.28539a4.90483,4.90483,0,0,1-.21752-2.33308,1.67468,1.67468,0,0,1,3.08346-1.07345c1.27606,1.4658,1.21024,3.17875.8369,4.921-.06068.28318-.07054.48527.1659.58891.30561.134.35628-.17317.45533-.362a4.2883,4.2883,0,0,0,.25463-2.81564,5.88487,5.88487,0,0,0-1.50582-3.46623c-1.42088-1.35052-2.87487-1.35638-3.75638.6977-.08577.19984.044.49618-.27544.58789-.16069-1.77111-.32137-3.54223-.50744-5.59314.30609.56242.67922.68384.87214.45134a.99823.99823,0,0,0-.0014-1.10814c-.26753-.49412-.62386-.44132-.97017-.11506-.12063-1.0463-.23382-2.02794-.347-3.00959.82247-.8926,1.65036-1.33279,2.52225-.05063.05547.08155.23732.07041.308.14935a1.19865,1.19865,0,0,0,1.51361.243c.60853-.25835.666-.78072.697-1.35576a24.03216,24.03216,0,0,0-.54545-4.07979c-.038-.32837-.21135-.903-.67722-.86678-1.61131.12532-3.19707-.63737-4.81063-.113a5.85108,5.85108,0,0,1-.45426-2.55434c.48038-.31822.26607-.81238.21064-1.18886a16.59274,16.59274,0,0,0-.54951-2.14607c-.10527-.36534-.38715-.75519.17371-.97552.51022-.20042,1.04023-.18875,1.30595.353.25307.516.34166,1.11009.55643,1.64834.21511.53915.17227,1.22465.96672,1.70773-.19241-1.03936-.305-1.9105-.53022-2.7515-.11017-.41151-.31905-.79969.23662-.92857.441-.10227.983-.1909,1.22391.41441.1.25128.163.517.25128.77328.32.92851.2946,1.99612,1.21033,2.94413a23.79761,23.79761,0,0,0-.95929-4.48189,1.37012,1.37012,0,0,0-1.51217-1.142,28.05842,28.05842,0,0,0-4.01346.30743,29.59743,29.59743,0,0,1-1.298-4.6066,9.36756,9.36756,0,0,0,1.17932,1.1659,2.66272,2.66272,0,0,0,2.49474.64282,1.7407,1.7407,0,0,0,1.20384-1.46695,9.61827,9.61827,0,0,0-1.06127-5.09507.99941.99941,0,0,0-.97778-.537,18.78706,18.78706,0,0,0-4.65749.49864l-.942-2.63418a27.324,27.324,0,0,0,4.34326-.896c.23709-.06879.7282.06186.66108-.475-.05648-.45172-.37331-.51728-.76606-.56846a8.7108,8.7108,0,0,0-1.74521.25166c-1.28818.07955-1.74635-.49637-1.29278-1.691.38674-1.01854.83939-2.01183,1.24052-3.02514.23411-.59138-.34228-1.6185-.85122-1.45574-1.5512.49606-3.25755.36344-4.71854,1.19162a12.99292,12.99292,0,0,1-1.195-2.68916c1.37524-.40008,2.74719-.81209,4.12789-1.19229.37032-.102.78689-.1818.55112-.65193a.68265.68265,0,0,0-.92267-.42777c-1.49337.4173-2.99877.79274-4.47265,1.28131q-1.66824-2.97737-3.33651-5.95475c1.58339-.49607,2.1206-.37935,2.95482,1.1.263.46637.46784,1.17807,1.4114,1.28209-.47623-.9035-.857-1.68732-1.29765-2.43578a.60279.60279,0,0,1,.11434-.90692.807.807,0,0,1,1.07515-.12519,4.021,4.021,0,0,1,.78029.86872c.50672.6766.77462,1.54534,1.54061,2.06442a.918.918,0,0,0-.03065-.917c-.51521-.82394-1.0658-1.631-1.51087-2.49215-.48406-.93652-1.13142-.95546-2.04171-.69377a26.59372,26.59372,0,0,1-3.7291,1.2443,18.246,18.246,0,0,1-1.70077-2.84158c.663.2898,1.33522.89307,2.04847.21375.71669-.68265.33675-1.43573-.01618-2.16523a6.78132,6.78132,0,0,1-.55333-1.40913c-.08258-.36159-.17113-.818.25119-1.09006.46493-.29947.704.08946,1.00471.3404a5.104,5.104,0,0,1,1.37419,2.03235c.08984.21253.26705.43837.54483.34677.08169-.02693.16775-.29619.1254-.40524a5.6177,5.6177,0,0,0-2.69733-3.28684,1.26706,1.26706,0,0,0-1.54733.22694,1.21039,1.21039,0,0,0-.069,1.52361,9.70017,9.70017,0,0,1,.671,1.61884c.1394.472.572,1.05045-.15211,1.42374-.59247.30546-.90722-.21288-1.28877-.51664a3.62034,3.62034,0,0,1-1.1201-2.14011.89449.89449,0,0,0-.58266-.68869c-.25551-.04551-.43016.29714-.38273.622a8.87294,8.87294,0,0,1-1.90988-2.3966c.22167-.87953-.60391-1.25433-.99046-1.7485-.68792-.87942-.58764-1.34053.34355-1.82387.79074-.41045,1.53961-.90089,2.31884-1.33469.32635-.18168.66857-.33617.3917-.78025-.2288-.367-.52988-.35794-.91775-.16863a36.377,36.377,0,0,0-4.03313,2.25337,3.84629,3.84629,0,0,1-1.64359-1.90059,41.22818,41.22818,0,0,0,1.67779-3.93575c.22713-.50554.37317-.97178-.00139-1.42687a1.52375,1.52375,0,0,0-1.68155-.60489,8.817,8.817,0,0,1-2.10458.20426c-1.07161.12533-2.13828.293-3.20705.44267a4.335,4.335,0,0,1-1.74257-1.6485c-.45817-1.07672-1.67732-1.3767-2.31812-2.27285-.21984-.30745-.75813-.61846-.36105-.96115.33262-.287.70142-.90906,1.41705-.44287.37263.24274.66441.54685,1.00141.81228.50349.39656.9298.9512,1.767.918-.86656-.81824-1.66966-1.57653-2.4628-2.32543,1.12242-1.26383,1.20036-1.28224,2.37888-.24691a10.50855,10.50855,0,0,0,2.17908,1.58792.68217.68217,0,0,0-.25816-.85558,30.03006,30.03006,0,0,1-2.6096-2.19278,1.22507,1.22507,0,0,0-1.86435-.10045c-1.05615.81546-2.06829,1.688-3.09888,2.53659a20.482,20.482,0,0,1-3.321-2.66884,3.28046,3.28046,0,0,0,2.87961-.41753c.8173-.55853,1.35975-1.22347.92623-2.31633-.75626-1.90639-2.43891-2.79656-4.06533-3.72957-.421-.24152-.79836.13-1.1225.46228-.97466.99919-1.9761,1.97226-2.96709,2.95552a21.8444,21.8444,0,0,1-3.5122-2.20664c.43582-.01572.87355-.01075,1.30715-.05072a2.30088,2.30088,0,0,0,1.93739-3.58325c-.96352-1.43044-2.56973-2.08815-4.04477-2.86494-.28457-.14985-.61515.08527-.74337.24495-1.02091,1.27138-2.35361,2.28329-3.13559,3.75176l-3.96077-2.06177,1.07039-.03879a3.0732,3.0732,0,0,0,2.69579-1.902c.39018-1.20943-.31924-2.00272-1.13189-2.67324a6.03171,6.03171,0,0,0-4.27531-1.19941c-2.46373.08965-3.50683,1.83872-2.27637,3.97132a27.92612,27.92612,0,0,1-5.50168-2.26808,2.00683,2.00683,0,0,0,.4756-.012,3.16894,3.16894,0,0,0,2.61122-2.185,2.23519,2.23519,0,0,0-1.13682-2.41989,5.3426,5.3426,0,0,0-5.71554-.5848c-1.70776.82813-2.00722,2.29286-.83382,3.8527a42.2698,42.2698,0,0,1-4.95851-1.27815,4.73188,4.73188,0,0,0,.78513-.48832c.51555-.47622,1.2581-1.094,1.00144-1.71753-.2841-.69009-1.22526-.47592-1.92762-.387-.02642.00335-.04743.04932-.071.07543.59359,1.207.43353,1.63479-.70919,1.77024a3.67775,3.67775,0,0,1-1.4275-.0163c-.90973-.269-1.83428-.66212-1.97669-1.76355a2.06515,2.06515,0,0,1,1.36242-2.12836,4.26019,4.26019,0,0,1,3.94453.11123c.31036.13621.61411.33832.77853-.079.11536-.29284-.23618-.48419-.43737-.59049a5.33449,5.33449,0,0,0-3.32121-.52978A4.00081,4.00081,0,0,0,138.9275,23.535c-.49333,1.0944.21767,1.857.82829,2.62879a9.073,9.073,0,0,1-3.6313-.55267c-.90272-.32658-1.605-.89455-2.54307-.21618-.09257.06693-.30574-.04-.464-.056q-1.83861-.1854-3.67762-.36654c-.04211-.37237.244-.55485.44168-.79992.96-1.19024,1.92-2.38121,2.838-3.60358.109-.14514.43391-.38516.14346-.70255-.28735-.314-.47894-.02359-.72369.05-.69459.20887-.85012.91219-1.23841,1.37993-.484.583-.88749,1.41069-1.69821,1.205-.80367-.20385-.61324-1.13384-.75638-1.81485-.07225-.34376.01915-.94151-.69676-1.04a1.17145,1.17145,0,0,0-1.3197.5335c-.37493.55033-.86192,1.024-1.24035,1.57227a1.20688,1.20688,0,0,1-1.17836.56611c-.54837-.04241-.44351-.56009-.6361-.87057-.28594-.461-.03595-1.008-.35727-1.47657-.22853-.33326-.42091-.62089-.82255-.48216-.424.14644-.32174.44468-.23328.85107.31432,1.444.51146,2.91347.753,4.37329a55.44994,55.44994,0,0,0-6.69391.25845,2.99715,2.99715,0,0,1,.19076-.53776c.80379-1.38035,1.632-2.74677,2.412-4.14027.095-.16973.39185-.44592.04945-.71477-.33983-.26683-.52743.0021-.68256.207-.424.56006-.83974,1.12979-1.21081,1.72557-.35751.574-.70373,1.28658-1.425,1.24518-.69742-.04-.64627-.8709-.87309-1.38395a3.06074,3.06074,0,0,1-.13257-.44566c-.11725-.43578-.36247-.90877-.79433-.87566-.38533.02954-.90507.04371-1.14333.62165a9.95069,9.95069,0,0,1-1.10215,1.92591c-.71816,1.01378-1.323.93191-1.81528-.19942-.15508-.35635-.264-.73334-.42713-1.08552-.17948-.38738-.37208-.86966-.92738-.62908-.49006.21231-.29257.70381-.18615,1.03753.424,1.32967.90524,2.64108,1.36529,3.95925L102.63148,26.853c.88617-1.6485,1.476-3.42336,2.19265-5.14417.06915-.166.3087-.33464.06-.50331a.50154.50154,0,0,0-.64484.09716A4.31652,4.31652,0,0,0,103.2,23.124c-.2772.7249-.49257,1.50944-1.34978,1.562-.92519.05668-.73233-.95169-1.07815-1.45877-.24034-.35242-.19692-.92017-.8872-.91633-.68325.00381-.99067.45128-1.2969.89549a6.22941,6.22941,0,0,0-.36971.97533c-.30906.68039-.31889,1.67973-1.33337,1.71863-1.01582.039-.87814-1.04956-1.298-1.60045-.27073-.35524-.36515-1.00253-1.01076-.70027-.65361.306-.26889.80772-.084,1.21488a14.50068,14.50068,0,0,1,1.6053,3.7286c-1.527.52605-3.06468,1.02329-4.57846,1.585-2.17155.8058-4.32567,1.65861-6.48723,2.49136-.62212-.71268-1.25512-1.4162-1.86406-2.14-1.19888-1.425-2.74618-2.52254-3.81231-4.07114a81.72943,81.72943,0,0,1,17.76475-6.50211c7.21189-1.82892,14.5159-3.3435,22.05107-3.10349,2.82554.09,5.65109-.14154,8.48818-.05724a100.3308,100.3308,0,0,1,11.64146,1.19719,88.83654,88.83654,0,0,1,14.04481,3.31281,107.373,107.373,0,0,1,13.61842,5.43871A110.75727,110.75727,0,0,1,180.29767,34.339a92.35815,92.35815,0,0,1,10.12744,7.773,12.191,12.191,0,0,0,2.32594,2.02055c.1515.28547.31633.55589.67842.60479,2.33512,2.44,4.827,4.724,7.08814,7.24089.94545,1.05237,1.62354,2.37665,2.93222,3.087a.76347.76347,0,0,0,.4961.65092q2.92782,3.85536,5.68115,7.83732a119.49518,119.49518,0,0,1,10.14315,18.43481,110.75789,110.75789,0,0,1,7.31153,22.49666,101.68652,101.68652,0,0,1,2.38995,18.48462c.13019,4.27389.29294,8.54534.10591,12.81252C229.41881,139.40538,229.00973,143.01779,228.71138,146.635Z" transform="translate(0 0)"/><path class="cls-3" d="M79.35539,26.40834c1.06613,1.5486,2.61343,2.64612,3.81231,4.07114.60894.72378,1.24194,1.4273,1.86443,2.13989-1.37576.692-2.74086,1.40723-4.12989,2.07239A97.29664,97.29664,0,0,0,52.69388,55.70705a106.153,106.153,0,0,0-17.548,25.26243c-1.32854,2.65933-2.46294,5.40244-3.6651,8.11677-2.09158-1.84059-3.81034-4.04171-5.78864-5.99257a7.04843,7.04843,0,0,1,1.10716-2.8778,121.88007,121.88007,0,0,1,7.65625-13.89561,128.26885,128.26885,0,0,1,8.706-11.77557A107.515,107.515,0,0,1,53.9993,43.30051,102.0305,102.0305,0,0,1,75.53669,28.32875C76.80581,27.68118,78.08231,27.04811,79.35539,26.40834Z" transform="translate(0 0)"/><path class="cls-3" d="M30.44032,195.00505c1.83019,3.00721,3.54939,6.08008,5.52745,8.99943A107.65361,107.65361,0,0,0,54.10231,224.7982a101.30881,101.30881,0,0,0,9.45423,7.528,4.40354,4.40354,0,0,1,.70263.7804c-2.43412,2.474-4.89769,4.92-7.28514,7.43824-.77018.81238-1.32293.637-1.96794-.03984-1.733-1.81846-3.47824-3.6254-5.20077-5.45374-2.34707-2.49125-4.66909-5.00613-7.017-7.49663q-8.16288-8.6588-16.34-17.30425c-1.45077-1.53642-2.851-3.12469-4.3669-4.59371-.72334-.701-.71594-1.16726-.05024-1.84969,1.97341-2.023,3.87159-4.12065,5.87764-6.10991A20.63891,20.63891,0,0,1,30.44032,195.00505Z" transform="translate(0 0)"/><path class="cls-3" d="M112.94261,279.37786a126.41984,126.41984,0,0,1,13.49319-.27776,39.08976,39.08976,0,0,0,5.60321.26014q3.639.48585,7.278.97231c.45116.06047.88193.1614.91858.73543A40.267,40.267,0,0,1,140.4,287.2379a1.04289,1.04289,0,0,1-.15106.31851,26.36229,26.36229,0,0,0-3.95837-.6206,73.75738,73.75738,0,0,0-9.58353-.78742,110.40551,110.40551,0,0,0-16.43326.47831c-1.92147.24246-3.8284.60017-5.742.90527-.001-2.02318.0446-4.04794-.02454-6.06878-.0305-.8914.36923-1.27484,1.13583-1.29878C108.09805,280.08765,110.47605,279.32216,112.94261,279.37786Z" transform="translate(0 0)"/><path class="cls-3" d="M140.23467,292.09q.00351,2.77677.007,5.55348a132.63675,132.63675,0,0,0-14.14377-1.34445,97.93184,97.93184,0,0,0-11.95382.09856c-3.20981.26866-6.40835.67209-9.6119,1.01572q-.001-2.67753-.00191-5.355a54.2074,54.2074,0,0,1,9.69239-1.14226c3.7085-.017,7.407-.40255,11.11754-.23556a46.18728,46.18728,0,0,1,6.6808.346C134.749,291.55632,137.5266,291.52787,140.23467,292.09Z" transform="translate(0 0)"/><path class="cls-2" d="M140.23467,292.09c-2.70807-.56214-5.48568-.53369-8.21368-1.06349a46.18728,46.18728,0,0,0-6.6808-.346c-3.71057-.167-7.409.21852-11.11754.23556a54.2074,54.2074,0,0,0-9.69239,1.14226q.00066-2.26317.00146-4.52631c1.91361-.30513,3.82054-.66284,5.742-.9053a110.40551,110.40551,0,0,1,16.43326-.47831,73.75738,73.75738,0,0,1,9.58353.78742,26.36229,26.36229,0,0,1,3.95837.6206Q140.24193,289.82331,140.23467,292.09Z" transform="translate(0 0)"/><path class="cls-2" d="M104.53217,297.41332c3.20355-.34363,6.40209-.74706,9.6119-1.01572a97.93184,97.93184,0,0,1,11.95382-.09856,132.63675,132.63675,0,0,1,14.14377,1.34445q-.00911,2.22123-.01837,4.44215c-2.40751-.30918-4.80875-.68269-7.22361-.914a98.43171,98.43171,0,0,0-16.8319-.33877c-3.89075.29381-7.76148.75268-11.63968,1.153Q104.53016,299.69967,104.53217,297.41332Z" transform="translate(0 0)"/><path class="cls-4" d="M81.5207,317.58047c.88121-.77288,1.20518-.27528,1.41324.59627.87024,3.64557,1.76323,7.28569,2.63044,10.932a25.00258,25.00258,0,0,0,2.18452,5.65944,5.5856,5.5856,0,0,0,6.00652,3.14448,34.82424,34.82424,0,0,0,9.1425-2.17118c3.25645-1.22516,4.73544-3.81127,4.94435-7.09009a52.30382,52.30382,0,0,0-2.31521-19.27584,6.29675,6.29675,0,0,1-.22484-.67979c-.123-.634-.29929-1.35779.55539-1.58658.8007-.21433,1.12962.37966,1.32985,1.03749.63818,2.09683,1.3227,4.18114,1.89927,6.29483a44.12094,44.12094,0,0,1,1.91208,12.98072,25.128,25.128,0,0,1-.72384,4.96759c-.55636,2.3796-2.20542,3.66831-4.31332,4.55087a46.42373,46.42373,0,0,1-10.39967,2.5776,10.754,10.754,0,0,1-6.338-.33725A5.5428,5.5428,0,0,1,86.821,337.15a23.17158,23.17158,0,0,1-3.25759-8.54828c-.7461-3.50987-1.17714-7.08509-2.10366-10.56079Z" transform="translate(0 0)"/><path class="cls-4" d="M203.94593,55.71609c-.32316-.09659-.42508-.362-.496-.65134a49.65328,49.65328,0,0,0,7.12128-5.7813,22.32985,22.32985,0,0,0,7.0422-13.51079,20.12651,20.12651,0,0,0-.47925-7.72291,15.7012,15.7012,0,0,0-3.46966-6.34741c-2.19117-2.47439-4.83425-4.2902-8.36-3.499-4.50546,1.011-7.27279,4.11987-8.94306,8.22939-1.7859,4.394-1.5275,9.15413-2.18961,13.75-.21937,1.52279-.08211,3.10374-.74236,4.55459-.36209-.0489-.52692-.31932-.67842-.60479.33165-3.41179.58366-6.83366,1.01639-10.23248.47207-3.70758.84159-7.45594,3.0992-10.67657a14.24139,14.24139,0,0,1,8.01016-6.07556c4.04173-1.08205,6.93627.91532,9.41875,3.72769a21.89674,21.89674,0,0,1,3.82155,6.59152,4.786,4.786,0,0,1,.43457,1.61033,45.50882,45.50882,0,0,1-.07552,7.77121A22.70627,22.70627,0,0,1,211.506,49.75842C209.19393,52.00728,207.00052,54.40939,203.94593,55.71609Z" transform="translate(0 0)"/><path class="cls-3" d="M214.308,170.672a55.44758,55.44758,0,0,1,5.823,6.06678,109.28516,109.28516,0,0,1-10.09543,18.71362,113.28783,113.28783,0,0,1-13.32947,16.29752,93.26078,93.26078,0,0,1-9.45647,8.6176,109.43533,109.43533,0,0,1-14.03956,9.41036,52.24269,52.24269,0,0,1-6.93332,3.53582c-1.89861-2.06652-3.846-4.09031-5.60153-6.28466,3.62325-2.08941,7.53111-3.615,11.09454-5.86018,2.75588-1.73635,5.479-3.51634,8.09507-5.43555a98.81244,98.81244,0,0,0,21.0723-21.18979,107.80235,107.80235,0,0,0,8.906-14.30105C211.47127,177.11269,212.84835,173.87525,214.308,170.672Z" transform="translate(0 0)"/><path class="cls-4" d="M214.308,170.672c-1.45963,3.20326-2.83671,6.4407-4.46491,9.57047a107.80235,107.80235,0,0,1-8.906,14.30105,98.81244,98.81244,0,0,1-21.0723,21.18979c-2.61607,1.91921-5.33919,3.6992-8.09507,5.43555-3.56343,2.24519-7.47129,3.77077-11.09454,5.86018-1.75949.62623-3.40168,1.55371-5.2165,2.03925-.63731-.16441-.96736.25591-1.2949.68106-1.33768.06392-2.48421.87151-3.81033.98036a.895.895,0,0,0-1.02113.49113l-6.90006,1.66429c-.63586-.38506-1.03827-.05493-1.383.45189a28.0799,28.0799,0,0,0-3.91152.51481c-.51831-.57182-.81489.08436-1.20584.218l-6.71546.72144c-.49354-.72828-.97866-.176-1.46619.00965l-3.772.00267a1.09672,1.09672,0,0,0-1.27.001c-1.03372-.00177-2.07013-.04925-3.10019.01139-.64479.038-1.51757-.42871-1.85045.647-.016.05157-.63331.40839-.93188.06478-1.22821-1.41352-2.8997-.77793-4.38742-.98793l.01047.028-.17234-.22038a8.56193,8.56193,0,0,0-4.80651-.51614l-5.29926-1.181a6.90171,6.90171,0,0,0-4.09959-.98083c-1.8013-.98053-3.86249-1.07221-5.77031-1.6888l.01249.03c.06567-.19659-.08762-.20367-.20734-.23982a7.662,7.662,0,0,0-4.30267-1.45331,13.95337,13.95337,0,0,0-3.88613-1.68386c-1.147-1.1176-2.68534-1.4023-4.10855-1.932a20.83937,20.83937,0,0,0-4.26757-2.36521c-.98536-1.29342-2.55887-1.64864-3.86728-2.42673a23.71728,23.71728,0,0,0-4.038-2.58661,1.06158,1.06158,0,0,0-.58682-.81979c-1.12773-.78-2.2354-1.58913-3.35062-2.38727-.82215-.45437-1.325-1.36716-2.29917-1.60325a.67122.67122,0,0,0-.343-.54843c-.23815-.20387-.46774-.41887-.71587-.60976-1.29948-.99967-2.33891-2.30544-3.74354-3.18074a.69334.69334,0,0,0-.66451-.71794,6.72855,6.72855,0,0,0-1.74944-1.74747,14.14257,14.14257,0,0,0-3.14568-3.3182,10.72891,10.72891,0,0,0-2.59689-2.86379,7.20794,7.20794,0,0,0-1.66593-2.12748,28.92472,28.92472,0,0,0-2.60907-3.6017l-.26108-.18448c.01242-.19272.00314-.36694-.26963-.31633l.02924.00551c-.5267-1.678-1.90431-2.83083-2.68951-4.35421a13.49094,13.49094,0,0,0-1.14182-1.61177l-.16522-.31166a14.67636,14.67636,0,0,0-1.98993-3.27749l-.24051-.43308L34.832,178.30335l-.4126-.58549A16.83091,16.83091,0,0,0,33.1452,174.662q-.733-1.68254-1.46594-3.36507c.00086-.18078.02971-.3866-.26819-.30027l.02938.00872a19.54589,19.54589,0,0,0-1.92082-5.25594,41.38,41.38,0,0,0-1.41645-4.67033,8.64124,8.64124,0,0,0-.96875-3.22469.83138.83138,0,0,1-.00915-.222,29.71387,29.71387,0,0,0-.97-4.41423c-.0238-.32861.06992-.69043-.263-.9317a13.11654,13.11654,0,0,0-.65716-3.51273l-.03451-.29474q-.46026-3.56673-.92056-7.13345c-.16908-.57817.17854-1.24525-.30427-1.76942.10207-3.18719-.22452-6.36263-.24316-9.55045a108.103,108.103,0,0,1,.83248-13.96088,94.618,94.618,0,0,1,2.44553-12.90152,136.04829,136.04829,0,0,1,4.47017-14.07721c1.20205-2.71419,2.33645-5.4573,3.665-8.11663a106.153,106.153,0,0,1,17.548-25.26243A97.29664,97.29664,0,0,1,80.90224,34.69176c1.389-.66516,2.75413-1.38034,4.12989-2.07239,2.16119-.83266,4.31531-1.68547,6.48686-2.49127,1.51378-.56172,3.05145-1.059,4.57845-1.585.74722.46267,1.19756.1003,1.54228-.55558l.1927-.15669-.02582.02089a16.03159,16.03159,0,0,0,3.591-.755c.61059.92856.89121.18515,1.23388-.24377q3.34361-.58555,6.68721-1.17112c.65124.94785.99963.05466,1.44676-.23825a30.67775,30.67775,0,0,0,3.78129-.32732c.56341.68767,1.00291.10915,1.47422-.14441a55.44788,55.44788,0,0,1,6.69391-.25844.9535.9535,0,0,0,1.49088.0051l3.80932.007c.375.65923.88948.51318,1.42475.24695q1.83886.18279,3.67762.36654c.15824.016.37141.12291.464.056.9381-.67837,1.64035-.1104,2.54307.21618a9.07281,9.07281,0,0,0,3.6313.55266,7.30511,7.30511,0,0,0,4.59244.97638,42.22482,42.22482,0,0,0,4.958,1.27784,5.662,5.662,0,0,0,4.59986,1.34927,27.92135,27.92135,0,0,0,5.50154,2.268,5.23185,5.23185,0,0,0,3.91753,1.8422q1.98037,1.03089,3.9608,2.06173a10.94273,10.94273,0,0,0,4.67916,2.50223,21.8423,21.8423,0,0,0,3.51222,2.20664c.96853,1.703,2.73607,2.26385,4.34906,3.04564a20.48269,20.48269,0,0,0,3.32094,2.66884c.22268,1.51057,1.74381,1.82423,2.58818,2.764a1.73722,1.73722,0,0,0,1.64141.77923,4.33432,4.33432,0,0,0,1.74262,1.64845.77067.77067,0,0,0,.77167.76678,35.19924,35.19924,0,0,0,3.766,3.99352c.05612.47014.38758.557.77911.56033a3.84563,3.84563,0,0,0,1.64364,1.90051,5.95516,5.95516,0,0,0,2.8872,3.60265,8.87179,8.87179,0,0,0,1.90989,2.39655c.63268,1.23475,1.11281,2.57835,2.3897,3.35362a18.24549,18.24549,0,0,0,1.70077,2.84157c-.04451.54686.11332.94685.73337,1.01129q1.66825,2.97738,3.33651,5.95475a1.15029,1.15029,0,0,0,.71631.99068,12.9926,12.9926,0,0,0,1.195,2.68915,1.40739,1.40739,0,0,0,.48529.90356,30.09347,30.09347,0,0,0,1.90516,4.08959,1.69235,1.69235,0,0,0,.7385,1.67487q.471,1.31709.942,2.63417a12.34976,12.34976,0,0,0,1.81866,4.79168,29.59381,29.59381,0,0,0,1.29806,4.60659,28.77875,28.77875,0,0,0,1.20546,5.242c.04985.112-.02572.36319.24953.22519l-.02587-.001a5.84853,5.84853,0,0,0,.45422,2.55421q.0193.40592.03851.81191l.71618,4.05949a2.0919,2.0919,0,0,0,.23769,1.20227c.11316.98165.22635,1.96329.347,3.00959.34631-.32626.70264-.37906.97017.11506a.99823.99823,0,0,1,.0014,1.10814c-.19292.2325-.566.11108-.87214-.45134.18607,2.05091.34675,3.822.50744,5.59314q.00759,1.44351.01524,2.887-.0001,3.32676-.00021,6.6535a11.5729,11.5729,0,0,0-.008,4.02887,22.16545,22.16545,0,0,0-.478,4.63018.80689.80689,0,0,0-.225.7695c-.06343.6696-.10487,1.34217-.19447,2.00825-.25273,1.87852-.52522,3.75437-.78991,5.63126l.023-.0238-.22009.17663-.04338.5242A120.33763,120.33763,0,0,1,214.308,170.672Zm-43.3986-88.16092-.36957.284c-.23556.138-.46861.28048-.70723.41294a1.0344,1.0344,0,0,1-1.209.022c-.442-.32774-.13388-.70195-.052-1.06159q.207-.90945.40987-1.81981c.89154-2.52908,1.77117-5.0654,4.08487-6.73046a4.66994,4.66994,0,0,1,1.96049-.452c.8286.06155,1.13271-.45044,1.37694-1.058q1.7348-4.316,3.4403-8.64376a4.73507,4.73507,0,0,0,.717-2.25233c-.12544-.93152-1.18384-.94849-1.76865-1.452a85.4212,85.4212,0,0,0-12.5211-8.81315A86.84842,86.84842,0,0,0,149.487,43.42819a89.34206,89.34206,0,0,0-17.59415-3.75073,84.8096,84.8096,0,0,0-25.02018.99873A82.41718,82.41718,0,0,0,91.53649,45.0793,86.43158,86.43158,0,0,0,66.89441,59.79906,90.93729,90.93729,0,0,0,54.14684,72.66847,93.111,93.111,0,0,0,43.65057,88.71818a99.98163,99.98163,0,0,0-7.59641,19.1651,101.87285,101.87285,0,0,0-3.54925,22.16615,113.86755,113.86755,0,0,0,.60445,17.45667,21.83263,21.83263,0,0,0,.912,5.28219,7.78053,7.78053,0,0,0,.04583,1.18942,105.18358,105.18358,0,0,0,6.05209,20.33162,92.159,92.159,0,0,0,6.10754,11.95728A97.62512,97.62512,0,0,0,60.91607,205.2141a86.58438,86.58438,0,0,0,7.659,6.72322,89.07264,89.07264,0,0,0,31.86819,16.25041,10.64291,10.64291,0,0,0,3.82758.80475,56.26282,56.26282,0,0,0,8.81145,1.57024,84.704,84.704,0,0,0,29.02371-1.561,71.05609,71.05609,0,0,0,13.18293-4.14885,95.78644,95.78644,0,0,0,14.12074-7.34941,97.92625,97.92625,0,0,0,10.68353-7.95921,84.79271,84.79271,0,0,0,9.55977-9.49047,103.242,103.242,0,0,0,9.5653-13.25024,96.942,96.942,0,0,0,8.42372-17.77578,101.18672,101.18672,0,0,0,5.05319-21.6227,105.33108,105.33108,0,0,0,.30581-22.1311,94.52737,94.52737,0,0,0-4.043-20.12241c-1.02527-3.23061-2.27576-6.37727-3.5001-9.525a77.1324,77.1324,0,0,0-3.87264-7.80907A93.96548,93.96548,0,0,0,190.94209,71.877a1.09186,1.09186,0,0,0-1.67835-.24879c-2.459,1.45022-4.90352,2.92926-7.41222,4.289-1.4157.76731-2.64663,1.55215-2.5701,3.3944a18.64622,18.64622,0,0,0-1.83655,1.59183c-1.44018,1.04381-3.14,1.59076-4.602,2.57346-.73986.242-1.319.88855-2.16291.86558-.28167-.00767-.58506-.04967-.70778-.33342-.13044-.30156.21115-.36471.3575-.52122.13306-.1423.28382-.268.42678-.40108l.74189-.49962a14.04846,14.04846,0,0,0,4.70387-2.42107,2.38707,2.38707,0,0,0,.09282-3.90948c-.32125-.2945-.6475-.58646-.94217-.90657-1.061-1.15253-1.17968-1.15113-2.0257.26263A18.741,18.741,0,0,0,170.90938,82.51107ZM182.359,62.89694c-.16862.39605-.31977.70289-.43248,1.02327-1.05656,3.00332-2.28477,5.93765-3.57626,8.84508a2.27936,2.27936,0,0,0,.73179,2.91632.56638.56638,0,0,0,.66237.01663q4.50633-2.65214,9.014-5.30194c.44415-.26083.51213-.56185.14688-.94551C186.80176,67.24119,184.73825,64.99119,182.359,62.89694Z" transform="translate(0 0)"/><path class="cls-5" d="M19.67934,113.467c1.40509.56974,2.81659,1.12629,4.21219,1.72024a.67.67,0,0,1,.30513.93064c-.18984.41407-.52633.03618-.79427.043-.606.01537-1.18832-.90957-1.7654-.14147-.59012.78545.12768,1.26309.57606,1.77979.07289.084.07708.22464.14258.31845,1.27176,1.82112,1.28078,1.83831-.75233,2.7647a1.10174,1.10174,0,0,0-.656.90308,1.02463,1.02463,0,0,0,.65263,1.02165c.50529.199.98891.458,1.50218.6307.62309.20967.487.73.36291,1.07424-.18416.51094-.5573.01563-.77345-.05511-1.18039-.38626-2.32886-.86878-3.49786-1.2918-.5004-.18108-.94743-.60438-.81541-1.003.17338-.52344-.21371-1.3496.716-1.57992.55947-.13859,1.07072-.46128,1.62264-.64371.8238-.27229.95383-.79382.63225-1.52051a15.14047,15.14047,0,0,0-1.89078-2.4,2.10608,2.10608,0,0,1-.27083-2.19686C19.29972,113.53914,19.40123,113.43035,19.67934,113.467Z" transform="translate(0 0)"/><path class="cls-5" d="M141.04927,233.337c.34475-.50682.74716-.837,1.383-.45189.549,1.40611,1.10437,2.80977,1.64111,4.22053.09789.2573.33652.61661-.13918.74618-.31681.08628-.68617.21174-.86948-.29994a11.934,11.934,0,0,0-.69324-1.46648c-.45509-.87265-1.04088-.75547-1.51406-.074a13.67191,13.67191,0,0,0-1.01024,1.95388c-.25113.52743-.53531.925-1.222.91417-.77-.01213-.83544-.59509-1.017-1.09344-.50114-1.37566-1.22986-1.74869-1.88343-.91821a12.41353,12.41353,0,0,0-.93913,1.61227,4.93458,4.93458,0,0,0-.26816.52035c-.19225.46064-.504.99956-1.00018.76188-.49417-.23671-.01226-.77584.1302-1.08525.7166-1.55644,1.51481-3.07529,2.28437-4.60732.391-.13359.68753-.78977,1.20583-.21792.23385.575.47035,1.14891.70074,1.72526.18239.45625.19422,1.04982.85793,1.12565.682.07791,1.02342-.44226,1.27413-.90672C140.3943,235.011,140.69615,234.16017,141.04927,233.337Z" transform="translate(0 0)"/><path class="cls-5" d="M127.75026,234.80086c.48753-.18565.97265-.73793,1.46619-.00965.35306,1.43234.67468,2.87364,1.07876,4.29142.1181.41433.1881.66279-.28508.8083-.46025.14152-.698-.02612-.80509-.4912-.10394-.45145-.26593-.88938-.3992-1.33421-.10907-.36411-.08249-.83609-.63-.86658a1.16014,1.16014,0,0,0-1.16813.57964c-.34042.5687-.73255,1.10709-1.11411,1.65029a1.52662,1.52662,0,0,1-1.54941.63991c-.71016-.07992-.21535-.75735-.54407-1.03255-.09242-.0774-.03715-.30953-.10288-.44481-.18884-.38866-.00651-.9924-.58734-1.15028-.70449-.19147-1.10768.29755-1.4781.76933-.43324.55178-.81675,1.14276-1.25192,1.69291-.21687.27413-.52761.6195-.88382.29464-.29623-.27019.01716-.54416.19724-.81254,1.01845-1.51792,2.01249-3.05224,3.01486-4.581a1.09675,1.09675,0,0,1,1.27-.001,6.24813,6.24813,0,0,0,.45512,2.39756c.21089,1.01212.882,1.23264,1.53776.4307A8.5586,8.5586,0,0,0,127.75026,234.80086Z" transform="translate(0 0)"/><path class="cls-5" d="M149.33235,231.22083a.895.895,0,0,1,1.02113-.49113c.38363.71016.77483,1.41637,1.14741,2.13229.16806.32293.38776.716.72646.67408a1.09833,1.09833,0,0,0,.97516-.71241,17.36758,17.36758,0,0,0,.9613-3.07432c.32754-.42515.65759-.84547,1.2949-.68106.73341,1.28764,1.46072,2.57877,2.204,3.86066.21526.37127.30348.674-.11772.97655-.46888.33687-.63829.10207-.90061-.29092-.24154-.36181-.41888-.74984-.64506-1.11188a.97337.97337,0,0,0-.95582-.5908,1.02673,1.02673,0,0,0-.90067.81176,18.74984,18.74984,0,0,0-.68995,2.10232c-.13087.66539-.61876.77-1.09029.90639-.59508.17209-.64739-.38-.86842-.72544-.36707-.57377-.42641-1.57618-1.229-1.58332-.9478-.00846-.99415,1.042-1.35754,1.70468-.40843.7447-.29248,1.92513-1.67,2.07243C147.96412,235.1392,148.46328,233.11745,149.33235,231.22083Z" transform="translate(0 0)"/><path class="cls-5" d="M37.4367,183.31381l.24051.43308c-.33986.64038-1.0416.68051-1.60275.85237-.85081.26052-1.72952.43214-2.58358.71048-1.07.34868-1.64381-.23064-1.34476-1.34164a24.7237,24.7237,0,0,1,.99383-3.10263,1.1912,1.1912,0,0,0-.28269-1.35916c-.33366-.42358-.68189-.3723-1.1448-.15006-.44611.2142-.99.2151-1.459.39369a.67809.67809,0,0,1-.94461-.36606c-.19391-.45166.0799-.65033.56309-.77456,1.23933-.31867,2.45108-.74331,3.68332-1.09209a.702.702,0,0,1,.8641.20056l.41267.58555a14.37566,14.37566,0,0,1-1.06494,3.77628,1.26859,1.26859,0,0,0,.35384,1.32483c.29284.37394.60858.25792,1.03209.1537A3.746,3.746,0,0,1,37.4367,183.31381Z" transform="translate(0 0)"/><path class="cls-5" d="M79.80851,224.70169c1.42321.5297,2.96152.8144,4.10855,1.932-.532,1.65077-1.9232,2.69911-2.87125,4.05832a.76937.76937,0,0,1-.86648.247c-1.47856-.66582-3.04633-1.2266-4.04108-2.61571a2.25753,2.25753,0,0,1,1.51391-3.60816A11.36561,11.36561,0,0,1,79.80851,224.70169Zm-.68777.73639a2.0613,2.0613,0,0,0-2.31147,1.40767c-.40831,1.06294.42677,1.79388,1.34335,2.32014.71463.41028,1.47274.97207,2.23175.35134.89337-.73067,2.04207-1.726,1.91425-2.75334-.11234-.90294-1.58809-1.17924-2.65216-1.32366A5.22927,5.22927,0,0,0,79.12074,225.43808Z" transform="translate(0 0)"/><path class="cls-5" d="M31.67926,171.29692q.733,1.68255,1.46594,3.36507c-.06314.99821-1.003.70986-1.47813.827-.97235.23965-1.9988.30879-2.99047.53991a1.03713,1.03713,0,0,1-1.28074-.62511,18.15929,18.15929,0,0,1-1.424-4.29635,2.01845,2.01845,0,0,1,.77025-1.82666,2.24492,2.24492,0,0,1,2.324-.27386,5.51515,5.51515,0,0,1,2.37441,1.99855l-.02944-.00884Zm-4.80686.32839a3.78311,3.78311,0,0,0,.67608,2.31443c.22862.343.46937.90133.89522.81981a11.92931,11.92931,0,0,0,3.07028-.56973c.30275-.1444.47763-.30671.36666-.61465a6.27929,6.27929,0,0,0-1.9295-3.155,1.97912,1.97912,0,0,0-2.27119-.34073A1.45318,1.45318,0,0,0,26.8724,171.62531Z" transform="translate(0 0)"/><path class="cls-5" d="M27.12528,157.63244a.83138.83138,0,0,0,.00915.222c.01159.61034-.45446.42731-.76476.43263-1.073.01849-2.15551-.07887-3.2173.03189a1.33869,1.33869,0,0,1-1.694-1.24881,14.2417,14.2417,0,0,1-.58967-3.68789c.09433-1.36083.69641-1.76048,1.95823-1.18187a3.21248,3.21248,0,0,0,3.06543.08615c.33291.24127.23919.60309.263.9317a3.92471,3.92471,0,0,0-1.06784,1.47481c-.66386,1.21969-.33546,1.99479.99012,2.47837C26.43527,157.30187,26.7765,157.47752,27.12528,157.63244ZM21.605,154.4027a4.90451,4.90451,0,0,0,.459,2.13925c.35083.93129,1.14725.57114,1.72412.49732.62658-.08019.49564-.74185.41732-1.18171a6.157,6.157,0,0,0-.52867-1.76225,1.34594,1.34594,0,0,0-1.53665-.82765C21.46487,153.415,21.62792,153.95295,21.605,154.4027Z" transform="translate(0 0)"/><path class="cls-5" d="M71.67366,219.90975c1.30841.77809,2.88192,1.13331,3.86728,2.42673-.79585,1.41787-2.10931,2.39662-3.10132,3.64931a.82406.82406,0,0,1-1.00088.13422c-1.36218-.75237-2.84278-1.39392-3.76106-2.72676-1.43868-2.08812.44592-3.47047,2.26888-3.72113C70.56279,219.58736,71.07942,219.98059,71.67366,219.90975Zm-.50263,5.04949c.24623-.04089.55152.09892.7727-.14589.68714-.76046,1.38162-1.51507,2.04422-2.2966.2711-.31974-.08826-.49623-.26574-.6757a5.31715,5.31715,0,0,0-3.02888-1.39588A2.13249,2.13249,0,0,0,68.37,222.86981,3.71934,3.71934,0,0,0,71.171,224.95924Z" transform="translate(0 0)"/><path class="cls-5" d="M17.76756,129.686a4.02561,4.02561,0,0,1,.93456-2.67,1.98411,1.98411,0,0,1,2.74154-.16773c1.64017,1.24245,2.53585,4.8308,1.56712,6.844-1.04909,2.1802-2.71237,1.77238-3.95457.30719A7.4841,7.4841,0,0,1,17.76756,129.686Zm5.03257,1.60789a4.38753,4.38753,0,0,0-.87082-2.73212,1.89217,1.89217,0,0,0-2.24462-.91026,1.86959,1.86959,0,0,0-1.20231,1.97086c.018.39615-.00927.79427.00574,1.19067a3.68656,3.68656,0,0,0,1.65492,2.8406,1.44463,1.44463,0,0,0,1.66629.0298A2.58425,2.58425,0,0,0,22.80013,131.2939Z" transform="translate(0 0)"/><path class="cls-5" d="M87.80319,228.31755a7.66218,7.66218,0,0,1,4.30268,1.45329l.20733.23984-.01249-.03c1.61607,1.8911.50865,3.79749-2.26227,4.29719a5.68968,5.68968,0,0,1-4.31088-1.17074,2.3519,2.3519,0,0,1-1.03791-2.69409,2.90235,2.90235,0,0,1,2.25859-1.84927C87.23249,228.48038,87.59971,228.68948,87.80319,228.31755Zm1.27536,5.273a2.27689,2.27689,0,0,0,.593-.00754,2.61529,2.61529,0,0,0,2.01969-1.40268,1.8645,1.8645,0,0,0-.20566-1.89581c-.91057-1.23249-3.39824-1.51883-4.7607-.60786a1.7934,1.7934,0,0,0-.31167,2.94158A3.5519,3.5519,0,0,0,89.07855,233.59051Z" transform="translate(0 0)"/><path class="cls-5" d="M98.071,231.66944a6.90171,6.90171,0,0,1,4.09959.98083c.14145.1862.27159.38245.42627.5569a2.11177,2.11177,0,0,1-.19734,3.25241,5.937,5.937,0,0,1-6.70391-.07714c-1.55018-1.365-1.06979-3.39424.98325-4.23166C97.13652,231.96411,97.68805,232.05993,98.071,231.66944Zm1.17243.72175c-1.84718.005-3.2324.95245-3.34108,2.12713-.10289,1.11217.605,1.76329,2.3942,2.20582.07444.01843.14068.06935.215.089a3.3259,3.3259,0,0,0,3.59316-1.95328c.24288-.94426-.78731-2.05677-2.2646-2.41843A2.57168,2.57168,0,0,0,99.24345,232.39119Z" transform="translate(0 0)"/><path class="cls-5" d="M55.93217,207.456a.69334.69334,0,0,1,.6645.718c.00748,2.03972,2.2285,3.92755,4.45942,3.79047a.67122.67122,0,0,1,.343.54843c-1.89085.7703-3.95219.66445-5.90636,1.13405-.69971.16815-1.49554-.7928-1.26912-1.4912A22.90678,22.90678,0,0,1,55.93217,207.456Zm.69359,5.032c.67355.00464,1.21753-.00295,1.382-.60411.10249-.37471-1.24159-1.618-1.645-1.51368a1.02273,1.02273,0,0,0-.7433,1.058C55.551,212.34333,56.10563,212.461,56.62576,212.488Z" transform="translate(0 0)"/><path class="cls-5" d="M107.46987,233.83123a8.56193,8.56193,0,0,1,4.80651.51614l.17235.22038-.01048-.028c1.41864,2.0315.83153,3.729-1.52626,4.57209a5.35314,5.35314,0,0,1-5.11628-.54392,3.49756,3.49756,0,0,1,2.40148.2248,3.47507,3.47507,0,0,0,3.78954-2.01389,1.30773,1.30773,0,0,0-.24165-1.36991,3.42242,3.42242,0,0,0-3.64438-.83646c-1.00034.51145-.47171,1.18543-.0739,1.82189-.80582.00183-2.02564.46877-2.14072-.31617A2.62059,2.62059,0,0,1,107.46987,233.83123Z" transform="translate(0 0)"/><path class="cls-5" d="M28.10318,161.0791a41.38,41.38,0,0,1,1.41645,4.67033,11.77824,11.77824,0,0,1-4.98708.61029.84014.84014,0,0,1-.34-.33077,20.413,20.413,0,0,1-1.49864-4.98919c.93895.81424.91861,1.75107,1.26279,2.50679.15773.34636.31221.71094.451,1.0733.25685.67054.82332.40886,1.21733.34384.519-.08559.24439-.54117.2017-.86836-.1143-.8761-.7241-1.6446-.58853-2.66988a3.21559,3.21559,0,0,1,.91365,1.53535c.16746.43419.30425.88084.48493,1.30918.22169.52554.61306.89216,1.20432.70765.68523-.2139.537-.82389.39473-1.30255a14.149,14.149,0,0,1-.68621-2.35144c-.02366-.20031-.363-.426-.02209-.58109C27.77646,160.62929,27.9346,160.9192,28.10318,161.0791Z" transform="translate(0 0)"/><path class="cls-5" d="M63.69824,214.11608c1.11522.79814,2.22289,1.60723,3.35062,2.38727a1.06158,1.06158,0,0,1,.58682.81979,20.99946,20.99946,0,0,1-3.34895,3.17134c-.16809.11385-.22757.38879-.56143.22728a19.07338,19.07338,0,0,1-4.1993-3.05236c.98149-.30415,1.31821.39308,1.82443.67472.54177.30142,1.01573.72647,1.56149,1.01866a.91175.91175,0,0,0,1.22967-.40877c.3493-.49239-.1355-.6009-.37412-.89011-.56112-.6801-1.58812-.88993-1.965-2.02961a11.1416,11.1416,0,0,1,2.33983,1.46431c.4043.299.81986.80956,1.43488.27485.5166-.44911.84021-.84969.08531-1.37458a20.76063,20.76063,0,0,1-1.86319-1.41151C63.58591,214.8,62.80379,214.50259,63.69824,214.11608Z" transform="translate(0 0)"/><path class="cls-5" d="M46.77423,197.399a7.20794,7.20794,0,0,1,1.66593,2.12748,4.278,4.278,0,0,0,.30823.86947c.19362.317.00212.44156-.20549.53147-.27649.11975-.28547-.13944-.37191-.31128-.28117-.55891-.61419-1.09322-.8707-1.6625a1.693,1.693,0,0,0-.87613-.89634c-.38765-.18368-.75836-.52258-1.15179-.15253-.35805.33674-.22563.7878-.03529,1.18866.26838.56517.52613,1.137.82764,1.68436a1.40391,1.40391,0,0,1,.08072,1.55537,1.50778,1.50778,0,0,1-1.5903.3388,4.50272,4.50272,0,0,1-2.78266-3.48581c.66549.091.66244.7951,1.05231,1.12106a4.64673,4.64673,0,0,1,.63169.8377c.40607.5453,1.0113.81541,1.54343.43178.43763-.31549.16544-.9113-.06317-1.36537-.264-.52436-.50588-1.0616-.7995-1.56885a1.26227,1.26227,0,0,1,.09118-1.6268,1.21711,1.21711,0,0,1,1.61788-.1095C46.14373,197.08973,46.46418,197.236,46.77423,197.399Z" transform="translate(0 0)"/><path class="cls-5" d="M23.97585,139.57617c.48281.52417.13519,1.19125.30427,1.76942a5.48342,5.48342,0,0,1-.25826,2.0887,2.06743,2.06743,0,0,1-3.33942,1.103,6.45344,6.45344,0,0,1-2.04583-6.1436c.074-.21247-.11557-.79871.42212-.65573.38767.10309.44888.45945.291.8758a4.57965,4.57965,0,0,0,.21144,3.10576c.48,1.47538,1.76839,2.29578,2.85186,1.95009,1.0031-.32005,1.46392-1.75447,1.03716-3.27676a7.82989,7.82989,0,0,0-.48642-1.42333c-.15594-.30884-.20321-.56137.11139-.67973.28841-.1085.18525.34443.40367.42531C23.876,138.86212,23.59655,139.41119,23.97585,139.57617Z" transform="translate(0 0)"/><path class="cls-5" d="M43.90407,193.61284l.26109.18448c.00546.26657-.10693.37991-.37376.504-.74007.34407-1.45858.7201-2.227,1.01789-2.43889.945-2.43029.97506-3.8796-1.1521-.42587-.625-.83414-1.26207-1.43609-2.17516,1.279.47406,1.59094,1.40615,2.13477,2.09927a1.26344,1.26344,0,0,0,1.15838.66012c.95275-.07738,1.21407-.47589.72876-1.27094a18.44886,18.44886,0,0,1-1.33719-2.31067c1.43265,1.10775,2.1926,3.6509,4.73036,2.13246l-.02931-.00565Z" transform="translate(0 0)"/><path class="cls-5" d="M51.03705,202.39029a14.14257,14.14257,0,0,1,3.14568,3.3182c-1.2829.88189-2.57117,1.75155-3.93287,2.51462-.50691.284-.8414.19454-1.11061-.21628-.367-.56006.27457-.49479.48587-.64762a20.16176,20.16176,0,0,1,2.239-1.487c.93054-.499.8642-1.00531.18832-1.64076A6.36864,6.36864,0,0,1,50.773,202.693C50.57828,202.33918,50.89684,202.44528,51.03705,202.39029Z" transform="translate(0 0)"/><path class="cls-5" d="M39.66714,187.02438l.16522.31166c-1.35732,1.10833-3.0469,1.40116-4.65675,1.88247a.62662.62662,0,0,1-.808-.33188c-.13272-.38446.22315-.48129.50728-.64675,1.11689-.6504,2.40791-.83385,3.57056-1.36817A1.08533,1.08533,0,0,1,39.66714,187.02438Z" transform="translate(0 0)"/><path class="cls-5" d="M25.20068,148.479l.03451.29474a.52656.52656,0,0,1-.553.60353c-.36-.02413-.358-.40675-.48062-.691a.65229.65229,0,0,1,.11642-.813C24.9157,147.53521,24.84123,148.3552,25.20068,148.479Z" transform="translate(0 0)"/><path class="cls-1" d="M193.42947,44.73728c.66025-1.45085.523-3.0318.74236-4.55459.66211-4.59587.40371-9.356,2.18961-13.75,1.67027-4.10952,4.4376-7.21837,8.94306-8.22939,3.52573-.79116,6.16881,1.02465,8.36,3.499a15.7012,15.7012,0,0,1,3.46966,6.34741,20.12651,20.12651,0,0,1,.47925,7.72291,22.32985,22.32985,0,0,1-7.0422,13.51079,49.65328,49.65328,0,0,1-7.12128,5.7813c-1.30876-.70993-1.98685-2.03421-2.9323-3.08658C198.25646,49.46131,195.76459,47.1773,193.42947,44.73728Z" transform="translate(0 0)"/><path class="cls-5" d="M220.04509,151.07044l.04338-.5242.22009-.17663-.023.0238c.37546-.09122.67743.12033,1.00957.22872.47627.15541,1.00605.71913,1.4481.24229.49649-.53555.12147-1.17282-.21437-1.71779-.12158-.19732-.24762-.39195-.3747-.58581-1.23607-1.88544-1.24126-1.89965.781-2.60512.4676-.16314.88084-.33686.93215-.87065.05656-.58818-.35259-.91142-.81777-1.1392a3.71041,3.71041,0,0,1-1.77961-1.192.80689.80689,0,0,1,.225-.7695c1.45292.64431,2.91337,1.27254,4.35389,1.94358.39026.18178.88138.54881.62084.99392-.30766.5256.16015,1.46137-.85158,1.61352a10.34521,10.34521,0,0,0-1.47168.35813,1.11584,1.11584,0,0,0-.71581,1.85579c.40488.66468.89886,1.27451,1.33948,1.91815a2.5468,2.5468,0,0,1,.51639.9022c.09847.61564.23033,1.37919-.30547,1.781-.35591.2669-.952-.10562-1.3573-.35148C222.46223,152.29466,221.03682,152.08307,220.04509,151.07044Z" transform="translate(0 0)"/><path class="cls-5" d="M116.021,24.97188c-.47131.25356-.91081.83208-1.47421.14439-.16909-.6665-.29627-1.34773-.52333-1.99382-.13221-.37621-.2752-.82653-.867-.80355a1.09287,1.09287,0,0,0-1.0245.57458c-.53248.81673-.90539,1.70414-1.36647,2.55013-.44713.29291-.79552,1.1861-1.44676.23825-.46005-1.31814-.94127-2.62955-1.36529-3.95922-.10642-.33372-.30391-.82522.18615-1.03753.5553-.24058.7479.2417.92738.62908.16317.35218.27205.72917.42713,1.08552.49231,1.13133,1.09712,1.2132,1.81528.19942a9.95069,9.95069,0,0,0,1.10215-1.92591c.23826-.57794.758-.59211,1.14333-.62165.43186-.03311.67708.43988.79433.87566a3.06074,3.06074,0,0,0,.13257.44566c.22682.513.17567,1.34392.87309,1.38395.72129.0414,1.06751-.67114,1.425-1.24518.37107-.59578.78681-1.16551,1.21081-1.72557.15513-.20491.34273-.47384.68256-.207.3424.26885.04556.545-.04945.71477-.78,1.3935-1.60824,2.75992-2.412,4.14027A2.99715,2.99715,0,0,0,116.021,24.97188Z" transform="translate(0 0)"/><path class="cls-5" d="M129.43982,24.97245c-.53527.26623-1.04973.41228-1.42473-.247a6.64272,6.64272,0,0,0-.33039-2.30161.85868.85868,0,0,0-1.63019-.35473,13.01883,13.01883,0,0,0-1.84876,2.64941.9535.9535,0,0,1-1.49088-.0051c-.24153-1.45983-.43867-2.92933-.753-4.3733-.08846-.40639-.19067-.70463.23328-.85107.40164-.13873.594.1489.82255.48216.32132.4686.07133,1.01561.35727,1.47657.19259.31048.08773.82816.6361.87057a1.20688,1.20688,0,0,0,1.17836-.56611c.37843-.54831.86542-1.02194,1.24035-1.57227a1.17145,1.17145,0,0,1,1.3197-.5335c.71591.09853.62451.69628.69676,1.04.14314.681-.04729,1.611.75638,1.81485.81072.20565,1.21425-.62207,1.69821-1.205.38829-.46774.54382-1.17106,1.23841-1.37993.24475-.0736.43634-.364.72369-.05.29045.31739-.03448.55741-.14346.70255-.91794,1.22237-1.878,2.41334-2.838,3.60358C129.68384,24.4176,129.39771,24.60008,129.43982,24.97245Z" transform="translate(0 0)"/><path class="cls-5" d="M102.63148,26.853c-.34267.42892-.62329,1.17233-1.23387.24375-.28038-.63943-.55241-1.28268-.84321-1.91733-.41-.89478-1.19739-.9973-1.67242-.14249a7.74683,7.74683,0,0,0-1.07538,2.81481l.02571-.021q-.09641.07829-.19259.15681c-.34472.65587-.79506,1.01824-1.54228.55557a14.50022,14.50022,0,0,0-1.60529-3.72861c-.18493-.40716-.56965-.90888.084-1.21488.64561-.30226.74.345,1.01076.70027.41984.55089.28216,1.63941,1.298,1.60045,1.01448-.0389,1.02431-1.03824,1.33337-1.71863a6.22941,6.22941,0,0,1,.36971-.97533c.30623-.44421.61365-.89168,1.2969-.89549.69028-.00384.64686.56391.8872.91633.34582.50708.153,1.51545,1.07815,1.45877.85721-.05252,1.07258-.83706,1.34978-1.562a4.31652,4.31652,0,0,1,1.0393-1.82136.50154.50154,0,0,1,.64484-.09716c.24873.16867.00918.33727-.06.50331C104.1075,23.42962,103.51765,25.20448,102.63148,26.853Z" transform="translate(0 0)"/><path class="cls-5" d="M214.07759,88.28369a1.6923,1.6923,0,0,1-.73848-1.67487,12.7054,12.7054,0,0,0,1.40625-3.13126,1.03766,1.03766,0,0,0-1.17165-1.41957c-.71716.13275-1.42681.30592-2.13978.46124a1.40739,1.40739,0,0,1-.48529-.90356c1.461-.82817,3.16734-.69555,4.71854-1.19161.50894-.16276,1.08533.86436.85122,1.45574-.40113,1.01331-.85378,2.0066-1.24052,3.02514-.45357,1.19458.0046,1.7705,1.29278,1.691a8.7108,8.7108,0,0,1,1.74521-.25166c.39275.05118.70958.11674.76606.56846.06712.53685-.424.4062-.66108.475A27.324,27.324,0,0,1,214.07759,88.28369Z" transform="translate(0 0)"/><path class="cls-5" d="M220.05816,109.14848q-.01921-.406-.03851-.81191c1.61351-.52435,3.19927.23834,4.81058.113.46587-.03624.63919.53841.67722.86678a24.03216,24.03216,0,0,1,.54545,4.07979c-.031.575-.08849,1.09741-.697,1.35576a1.19865,1.19865,0,0,1-1.51361-.243c-.07067-.07894-.25252-.0678-.308-.14935-.87189-1.28216-1.69978-.842-2.52225.05063a2.09192,2.09192,0,0,1-.23769-1.20228c.54972-.873,1.732-1.34563,1.26818-2.82423C221.67488,109.21176,220.7787,109.447,220.05816,109.14848Zm5.26185,3.049a4.01807,4.01807,0,0,0-.37158-1.8614c-.26434-.80029-1.00392-.77954-1.672-.6997a.70637.70637,0,0,0-.55527.88531,13.43019,13.43019,0,0,0,.53169,2.13492,1.27423,1.27423,0,0,0,1.40144.99913C225.47588,113.5459,225.33574,112.8514,225.32,112.19749Z" transform="translate(0 0)"/><path class="cls-5" d="M216.83825,95.70954a12.34976,12.34976,0,0,1-1.81866-4.79168,18.78779,18.78779,0,0,1,4.65751-.49863.99941.99941,0,0,1,.97778.537,9.61827,9.61827,0,0,1,1.06127,5.09507,1.7407,1.7407,0,0,1-1.20384,1.46695,2.66272,2.66272,0,0,1-2.49474-.64282A9.36756,9.36756,0,0,1,216.83825,95.70954Zm1.93-4.07913c-3.28389.17223-2.90729.37409-1.797,2.968a2.08821,2.08821,0,0,0,.504.78481c.77428.64511,1.49978,1.37088,2.70609.84519,1.27078-.55378.88819-1.61978.77062-2.46148C220.71865,92.09632,220.12805,91.63089,218.76827,91.63041Z" transform="translate(0 0)"/><path class="cls-5" d="M171.96513,38.44144A10.94285,10.94285,0,0,1,167.286,35.9392c.78195-1.46843,2.11465-2.48034,3.13556-3.75172.12822-.15968.4588-.3948.74337-.24495,1.475.77679,3.08125,1.4345,4.04477,2.86494a2.30088,2.30088,0,0,1-1.93739,3.58325C172.83868,38.43069,172.401,38.42572,171.96513,38.44144Zm2.554-2.91805c-.18463-1.1144-1.26185-1.638-2.31466-2.23289-.93045-.52576-1.30308.21111-1.76712.68746-.63433.65115-1.84274,1.34092-1.49014,2.16393.4274.99752,1.79056,1.30343,2.9,1.51128A2.30174,2.30174,0,0,0,174.51909,35.52339Z" transform="translate(0 0)"/><path class="cls-5" d="M179.82641,43.69371c-1.613-.78179-3.38053-1.34266-4.34908-3.04564.991-.98325,1.99243-1.95632,2.96709-2.95551.32414-.3323.70149-.7038,1.1225-.46228,1.62642.933,3.30907,1.82318,4.06533,3.72957.43352,1.09286-.10893,1.7578-.92623,2.31633A3.28046,3.28046,0,0,1,179.82641,43.69371Zm.665-.74215a1.87481,1.87481,0,0,0,2.00211-1.11316,1.56038,1.56038,0,0,0-.28694-1.83546c-.693-.80627-1.53544-1.84116-2.59772-1.52127a4.6807,4.6807,0,0,0-2.56811,2.49667c-.30979.65587.98045.989,1.59011,1.42912A2.86513,2.86513,0,0,0,180.49137,42.95156Z" transform="translate(0 0)"/><path class="cls-5" d="M163.32517,33.87747a5.23185,5.23185,0,0,1-3.91753-1.8422c-1.23032-2.13249-.18722-3.88156,2.27651-3.97121a6.03171,6.03171,0,0,1,4.27531,1.19941c.81265.67052,1.52207,1.46381,1.13189,2.67324a3.0732,3.0732,0,0,1-2.69579,1.902Zm-.098-.75723c.29993,0,.49949-.00946.69792.00162a2.0266,2.0266,0,0,0,1.92365-1.14619,1.701,1.701,0,0,0-.391-2.10842,3.972,3.972,0,0,0-4.63127-.67221,1.78156,1.78156,0,0,0,.01267,3.0891A3.15308,3.15308,0,0,0,163.22713,33.12024Z" transform="translate(0 0)"/><path class="cls-5" d="M153.9061,29.7673a5.662,5.662,0,0,1-4.59986-1.34927c-1.1729-1.55953-.87344-3.02426.83432-3.85239a5.3426,5.3426,0,0,1,5.71554.5848,2.23519,2.23519,0,0,1,1.13682,2.41989,3.16894,3.16894,0,0,1-2.61122,2.185A2.00683,2.00683,0,0,1,153.9061,29.7673Zm-1.22255-5.03775a4.119,4.119,0,0,0-1.14072.192,2.01793,2.01793,0,0,0-1.7276,1.92558c-.114,1.16814.64075,1.59895,1.50551,1.96344a7.32372,7.32372,0,0,0,1.31351.44043c1.64213.34687,3.4585-1.20753,3.18238-2.69923C155.64407,25.61946,154.10313,24.722,152.68355,24.72955Z" transform="translate(0 0)"/><path class="cls-5" d="M221.97287,137.35422a11.5729,11.5729,0,0,1,.008-4.02887c.0377-.01312.09623-.01509.11009-.041.50891-.95153,1.04558-2.00086,2.31986-1.81294,1.28134.189,1.89849,1.23846,2.3717,2.36628a6.93164,6.93164,0,0,1,.19589,4.72593,2.11523,2.11523,0,0,1-1.71569,1.73791,2.32784,2.32784,0,0,1-2.3652-1.217C222.52292,138.52962,222.33319,137.90111,221.97287,137.35422Zm.477-1.73468a2.99932,2.99932,0,0,0,.45647,1.92315c.49391.78919.96456,1.69893,2.12191,1.55743,1.03155-.12615,1.26054-.96389,1.56481-1.80358a3.46164,3.46164,0,0,0-.05658-2.16016c-.33852-1.3519-1.51151-2.59931-2.40321-2.48812C223.15727,132.77,222.44912,133.98112,222.44991,135.61954Z" transform="translate(0 0)"/><path class="cls-5" d="M194.43629,56.8749c-.39153-.00329-.723-.09019-.77909-.56034a3.97922,3.97922,0,0,0-3.766-3.99351.77067.77067,0,0,1-.77167-.76678c1.06872-.14964,2.13539-.31729,3.207-.44262a8.817,8.817,0,0,0,2.10458-.20426,1.52375,1.52375,0,0,1,1.68155.60489c.37456.45509.22852.92133.00139,1.42687A41.22818,41.22818,0,0,1,194.43629,56.8749Zm-.47107-2.879c.72072-.08528.81451-.66118.90164-1.12656.1712-.91448-.73135-.72754-1.16815-1.02123-.28586.4257-1.20189-.12268-1.1681.63471C192.5683,53.32778,193.3777,53.61075,193.96522,53.99594Z" transform="translate(0 0)"/><path class="cls-5" d="M144.34823,27.14019a7.30511,7.30511,0,0,1-4.59244-.97638c-.61062-.77182-1.32162-1.53438-.82829-2.62878a4.00081,4.00081,0,0,1,3.42223-2.13826,5.33449,5.33449,0,0,1,3.32121.52978c.20119.1063.55273.29765.43737.59049-.16442.41733-.46817.21522-.77853.079a4.26019,4.26019,0,0,0-3.94453-.11123,2.06515,2.06515,0,0,0-1.36242,2.12836c.14241,1.10143,1.067,1.49453,1.97669,1.76355a3.67775,3.67775,0,0,0,1.4275.0163c1.14272-.13545,1.30278-.56324.70919-1.77024.02354-.02611.04455-.07208.071-.07543.70236-.08894,1.64352-.30311,1.92762.387.25666.62348-.48589,1.24131-1.00144,1.71753A4.73188,4.73188,0,0,1,144.34823,27.14019Z" transform="translate(0 0)"/><path class="cls-5" d="M219.34177,105.55813a28.77875,28.77875,0,0,1-1.20546-5.242,28.05911,28.05911,0,0,1,4.01343-.30742,1.37012,1.37012,0,0,1,1.51217,1.142,23.79761,23.79761,0,0,1,.95929,4.48189c-.91573-.948-.89037-2.01562-1.21033-2.94413-.0883-.25624-.15129-.522-.25128-.77328-.24087-.60531-.7829-.51668-1.22391-.41441-.55567.12888-.34679.51706-.23662.92857.22517.841.33781,1.71214.53022,2.7515-.79445-.48308-.75161-1.16858-.96672-1.70773-.21477-.53825-.30336-1.13234-.55643-1.64834-.26572-.54171-.79573-.55338-1.30595-.353-.56086.22033-.279.61018-.17371.97552a16.59274,16.59274,0,0,1,.54951,2.14607c.05543.37648.26974.87064-.21064,1.18886l.026.00106Z" transform="translate(0 0)"/><path class="cls-5" d="M187.37694,49.90582a1.73722,1.73722,0,0,1-1.64141-.77923c-.84437-.93981-2.3655-1.25347-2.58818-2.764,1.03061-.8486,2.04275-1.72113,3.0989-2.53659a1.22507,1.22507,0,0,1,1.86435.10045,30.03006,30.03006,0,0,0,2.6096,2.19278.68217.68217,0,0,1,.25816.85558,10.50855,10.50855,0,0,1-2.17908-1.58792c-1.17852-1.03533-1.25646-1.01692-2.37888.24691.79314.7489,1.59624,1.50719,2.4628,2.32543-.83717.03324-1.26348-.5214-1.767-.918-.337-.26543-.62878-.56954-1.00141-.81228-.71563-.46619-1.08443.15582-1.41705.44287-.39708.34269.14121.6537.36105.96115C185.69962,48.52912,186.91877,48.8291,187.37694,49.90582Z" transform="translate(0 0)"/><path class="cls-5" d="M203.26672,68.12823c-1.27689-.77527-1.757-2.11887-2.3897-3.35362-.04744-.32478.12721-.66743.38272-.62192a.89449.89449,0,0,1,.58266.68869,3.62034,3.62034,0,0,0,1.1201,2.14011c.38155.30376.6963.8221,1.28877.51664.72407-.37329.29151-.95175.15211-1.42374a9.70017,9.70017,0,0,0-.671-1.61884,1.21039,1.21039,0,0,1,.069-1.52361,1.26706,1.26706,0,0,1,1.54733-.22694,5.6177,5.6177,0,0,1,2.69733,3.28684c.04235.10905-.04371.37831-.1254.40524-.27778.0916-.455-.13424-.54483-.34677a5.104,5.104,0,0,0-1.37419-2.03235c-.30074-.25094-.53978-.63987-1.00471-.3404-.42232.272-.33377.72847-.25119,1.09006a6.78132,6.78132,0,0,0,.55333,1.40913c.35293.7295.73287,1.48258.01618,2.16523C204.60194,69.0213,203.92974,68.418,203.26672,68.12823Z" transform="translate(0 0)"/><path class="cls-5" d="M221.98112,126.67185q-.00763-1.44351-.01524-2.887c.31944-.09171.18967-.388.27544-.58789.88151-2.05408,2.3355-2.04822,3.75638-.6977a5.88487,5.88487,0,0,1,1.50582,3.46623,4.2883,4.2883,0,0,1-.25463,2.81564c-.099.18885-.14972.496-.45533.362-.23644-.10364-.22658-.30573-.1659-.58891.37334-1.74223.43916-3.45518-.8369-4.921a1.67468,1.67468,0,0,0-3.08346,1.07345,4.90483,4.90483,0,0,0,.21752,2.33308c.15858.38284.42486.78115.09352,1.28539C222.34246,127.97629,222.43576,127.13835,221.98112,126.67185Z" transform="translate(0 0)"/><path class="cls-5" d="M205.70086,71.9811c-.62-.06445-.77788-.46444-.73337-1.0113a26.59238,26.59238,0,0,0,3.7291-1.24429c.91029-.26169,1.55765-.24275,2.04171.69377.44507.86111.99566,1.66821,1.51087,2.49215a.918.918,0,0,1,.03065.917c-.766-.51908-1.03389-1.38782-1.54061-2.06442a4.021,4.021,0,0,0-.78029-.86872.807.807,0,0,0-1.07515.12519.60279.60279,0,0,0-.11434.90692c.4407.74846.82142,1.53228,1.29765,2.43578-.94356-.104-1.14841-.81572-1.4114-1.28209C207.82146,71.60174,207.28425,71.485,205.70086,71.9811Z" transform="translate(0 0)"/><path class="cls-5" d="M198.96713,62.37806a5.95516,5.95516,0,0,1-2.8872-3.60265,36.38419,36.38419,0,0,1,4.03308-2.25329c.38787-.18931.689-.19835.91775.16863.27687.44408-.06535.59857-.3917.78025-.77923.4338-1.5281.92424-2.31884,1.33469-.93119.48334-1.03147.94445-.34355,1.82387C198.36322,61.12373,199.1888,61.49853,198.96713,62.37806Z" transform="translate(0 0)"/><path class="cls-5" d="M209.75368,78.92652a1.15029,1.15029,0,0,1-.71631-.99068c1.47388-.48857,2.97928-.864,4.47265-1.28131a.68265.68265,0,0,1,.92267.42777c.23577.47013-.1808.54995-.55112.65193C212.50087,78.11443,211.12892,78.52644,209.75368,78.92652Z" transform="translate(0 0)"/><path class="cls-3" d="M104.27086,228.99248a10.64291,10.64291,0,0,1-3.82758-.80475,89.07264,89.07264,0,0,1-31.86819-16.25041,86.58438,86.58438,0,0,1-7.659-6.72322,97.62512,97.62512,0,0,1-14.68923-18.94749,92.159,92.159,0,0,1-6.10754-11.95728,105.18358,105.18358,0,0,1-6.05209-20.33162,7.78085,7.78085,0,0,1-.04583-1.18946,1.82319,1.82319,0,0,0,.51643-.25959c1.75586-1.78547,3.59158-3.50332,5.22587-5.395,2.68366-3.10632,5.6211-5.96875,8.39682-8.98574,4.79329-5.20992,9.73765-10.28048,14.5989-15.42815q8.56017-9.06448,17.08764-18.15991,6.46771-6.87339,12.94008-13.74236,7.53687-7.9911,15.08829-15.96841c2.08262-2.19268,4.32645-4.24077,6.30628-6.5204,2.79379-3.21682,5.76668-6.25711,8.69513-9.34334.45185-.47621.728-.49589,1.24455.01106a23.65631,23.65631,0,0,0,8.26709,5.32135c3.124,1.17494,6.455,1.30023,9.75746,1.4076,5.08272.16528,10.164-.08287,15.24555.65575a31.15413,31.15413,0,0,1,13.39512,5.25228c.80252.55219,1.88236.91634,2.27973,1.98473-2.3137,1.66506-3.19333,4.20138-4.08488,6.73051a8.84181,8.84181,0,0,0-3.77565-.01741,7.24034,7.24034,0,0,0-4.80618,8.8353c.981,3.90915,3.46454,5.317,6.46583,5.25863,5.07927-.09883,7.31178-4.71056,6.56158-8.76851-.13633-.73739-.38654-1.45371-.58417-2.17975,1.462-.9827,3.16184-1.52965,4.602-2.57346a18.64924,18.64924,0,0,1,1.83659-1.59188,3.33817,3.33817,0,0,0,.8676,1.53806,34.86369,34.86369,0,0,1,5.09776,10.091,57.60926,57.60926,0,0,1,1.97148,15.11684c.10459,3.74224-.18361,7.48528.1959,11.2286.57215,5.64341,2.10822,10.87587,6.07938,15.12216.66837.7147.57362,1.1473-.04917,1.773q-2.49079,2.50231-4.892,5.09381c-3.975,4.31262-8.03413,8.54762-12.05722,12.81592-5.25423,5.57452-10.46864,11.18724-15.77107,16.71547-4.30937,4.49287-8.56453,9.03558-12.83645,13.56334-4.98264,5.28111-9.89109,10.63463-14.93228,15.85664-5.98712,6.20187-11.73474,12.62555-17.7259,18.82133-3.21264,3.32235-6.38526,6.68356-9.56257,10.0399A5.1677,5.1677,0,0,0,104.27086,228.99248Zm-29.141-52.55316a10.802,10.802,0,0,0-.47533-3.19089c-1.11018-3.77761-5.26711-7.12528-9.29963-6.78328a9.86516,9.86516,0,0,0-5.77928,2.53333c-3.79069,3.36474-7.05687,7.24778-10.56525,10.892-1.49229,1.55-1.473,1.56855-.12367,3.16822,1.39379,1.65233,1.39381,1.65235,2.99753.14706,1.11367-1.04532,1.2262-1.07811,2.21151.06026,3.19814,3.69491,6.71733,7.08412,10.05591,10.64486,2.52251,2.69037,5.05338,5.37314,7.54724,8.08987.31421.34228,1.02306.65063.3046,1.40707-.62821.66142-1.82813,1.25064-1.62222,2.16072.18327.81,1.18728,1.43415,1.82908,2.14028a.79584.79584,0,0,1,.08036.08879c.42287.63793.75867.57607,1.27875.01144q3.47507-3.77276,7.05233-7.45049c.51133-.52507.40491-.82066-.04568-1.22889a8.11129,8.11129,0,0,1-.6183-.71944c-1.60536-1.844-1.60572-1.84356-3.2653.01885-.10565.11854-.216.233-.3183.35432-.3929.46608-.73188.51325-1.19383.01644-2.55817-2.75111-5.14264-5.47775-7.72423-8.207-.40331-.42636-.5366-.71737-.004-1.23934,1.38691-1.35908,2.68441-2.81024,4.003-4.23813A12.89844,12.89844,0,0,0,75.12989,176.43932Zm48.95437-55.169a17.1282,17.1282,0,0,0,.342,2.95977,17.161,17.161,0,0,0,8.31288,10.338,9.55338,9.55338,0,0,0,10.78364-.34325,16.24926,16.24926,0,0,0,6.51155-9.62972c.60163-2.24.49039-2.177-1.8353-2.83689-.93982-.26664-1.12387-.03738-1.34647.77225a15.61763,15.61763,0,0,1-2.28967,4.81333c-3.01876,4.32186-7.72675,5.41524-11.90678,1.71458-.56718-.50212-.59664-.84275-.126-1.347.7061-.75648,1.395-1.52912,2.10665-2.28026,3.04687-3.216,6.08333-6.44226,9.164-9.62566.58958-.60925.55007-.969-.02639-1.535a18.21,18.21,0,0,0-4.97036-3.78425c-3.10039-1.42333-6.192-1.97608-9.23645.49858C126.28634,113.65189,124.08443,116.77068,124.08426,121.27028Zm-4.24877,33.73957a13.34876,13.34876,0,0,0,2.14766-.14923c6.48008-1.49123,10.63554-8.77049,8.75163-15.18908-.231-.78692-.44365-.96683-1.1912-.60184a9.24517,9.24517,0,0,1-2.12624.73453c-.69512.14677-.82071.41757-.59222,1.06081a6.85686,6.85686,0,0,1,.02,4.3472c-1.08226,3.67715-4.96,6.10846-8.38785,5.08228a11.46278,11.46278,0,0,1-8.12525-8.50989c-1.28173-4.69212,2.77045-10.14078,7.62594-9.155.91481.18573,1.40067-.33641,1.9109-.87408,2.25829-2.37976,2.23166-2.36317-.05641-4.74556-.57442-.59811-.91355-.46142-1.38632.0413-.48876.51976-.78918,1.23332-1.71751,1.26262-3.97689.12556-6.81668,2.27338-8.78618,5.49472-2.81563,4.6053-2.56513,9.39705.1741,13.90827C110.72738,152.04959,114.4831,154.89107,119.83549,155.00985ZM83.78775,164.716a3.809,3.809,0,0,1-1.547-1.35612c-.52162-.61416-.85739-.65428-1.41574-.04543-1.28361,1.39962-2.59135,2.78235-3.9666,4.09062-.84892.80759-.80033,1.37758.07444,2.10571.66725.55539,1.14276,1.69561,1.81831,1.795.80225.11805,1.274-1.0918,1.89253-1.71247.49177-.49349.766-.51625,1.22741-.02088q5.18006,5.56136,10.399,11.08618c.43766.462.49112.73439.046,1.22887-.58927.65466-1.75816,1.18893-1.59279,2.02158.15107.76064,1.13994,1.35516,1.76114,2.02143a4.05521,4.05521,0,0,1,.33474.3406c.31236.42794.58915.42228.957.02949q3.87075-4.13283,7.77567-8.23348c.186-.19526.36475-.31347.13137-.56-.84024-.88767-1.47772-2.20761-2.58885-2.51378-.73163-.20159-1.29664,1.1856-2.00836,1.78433a1.81792,1.81792,0,0,0-.30107.36665c-.47073.68035-.87394.50338-1.36619-.02389-2.481-2.65738-5.005-5.27467-7.47858-7.93888a6.28369,6.28369,0,0,1-.59866-7.14542c.33189-.50871.54123-.93738,1.03261-.12666.2729.45025.693.49251,1.085.06541q1.07407-1.17027,2.15456-2.33462c.325-.348.49873-.63644.05528-1.07239-.99284-.976-1.95827-1.98333-2.88193-3.02488-.40426-.45586-.62163-.26086-.9302.0562a28.69018,28.69018,0,0,0-3.27962,3.57037,4.97952,4.97952,0,0,0-.89461,4.18156A8.79881,8.79881,0,0,1,83.78775,164.716ZM96.775,152.71871c.40524.013.55877.381.79551.63018q4.56261,4.802,9.12155,9.60744c1.70163,1.78318,1.71979,1.77686-.01117,3.59872-.53607.56422-.82736,1.048-.046,1.6846a13.4647,13.4647,0,0,1,1.54176,1.63373c.45779.52345.77046.502,1.26762-.04079,2.01333-2.19823,4.09225-4.33617,6.13807-6.50476,1.52734-1.619,1.52127-1.62473-.05471-3.25827-1.42208-1.474-1.42208-1.474-2.81124.08858-1.15761,1.30212-1.1533,1.298-2.28568.09746q-6.351-6.7335-12.69621-13.47242c-.54047-.57754-.817-.64569-1.37251.02188-1.05873,1.27223-2.25579,2.42857-3.38288,3.64466-1.51695,1.63674-1.51186,1.64147-.04471,3.24947,1.4032,1.53792,1.3924,1.52862,2.76582-.06879C95.9985,153.28349,96.22123,152.8119,96.775,152.71871Zm-4.39379-11.37909A3.05154,3.05154,0,0,0,89.3394,137.972a3.26578,3.26578,0,0,0,.06306,6.51973A2.95992,2.95992,0,0,0,92.38126,141.33962Z" transform="translate(0 0)"/><path class="cls-1" d="M104.27086,228.99248a5.1677,5.1677,0,0,1,1.39611-1.90492c3.17731-3.35634,6.34993-6.71755,9.56257-10.0399,5.99116-6.19578,11.73878-12.61946,17.7259-18.82133,5.04119-5.222,9.94964-10.57553,14.93228-15.85664,4.27192-4.52776,8.52708-9.07047,12.83645-13.56334,5.30243-5.52823,10.51684-11.141,15.77107-16.71547,4.02309-4.2683,8.08221-8.5033,12.05722-12.81592q2.39565-2.5991,4.892-5.09381c.62279-.62565.71754-1.05825.04917-1.773-3.97116-4.24629-5.50723-9.47875-6.07938-15.12216-.37951-3.74332-.09131-7.48636-.1959-11.2286a57.60926,57.60926,0,0,0-1.97148-15.11684,34.86369,34.86369,0,0,0-5.09776-10.091,3.33817,3.33817,0,0,1-.8676-1.53806c-.07657-1.8422,1.15436-2.627,2.57006-3.39435,2.5087-1.35972,4.95325-2.83876,7.41222-4.289a1.09186,1.09186,0,0,1,1.67835.24879A93.96548,93.96548,0,0,1,201.5853,87.81751a77.1324,77.1324,0,0,1,3.87264,7.80907c1.22434,3.14771,2.47483,6.29437,3.5001,9.525a94.52737,94.52737,0,0,1,4.043,20.12241,105.33108,105.33108,0,0,1-.30581,22.1311,101.18672,101.18672,0,0,1-5.05319,21.6227,96.942,96.942,0,0,1-8.42372,17.77578,103.242,103.242,0,0,1-9.5653,13.25024,84.79271,84.79271,0,0,1-9.55977,9.49047,97.92625,97.92625,0,0,1-10.68353,7.95921,95.78644,95.78644,0,0,1-14.12074,7.34941,71.05609,71.05609,0,0,1-13.18293,4.14885,84.704,84.704,0,0,1-29.02371,1.561A56.26282,56.26282,0,0,1,104.27086,228.99248Z" transform="translate(0 0)"/><path class="cls-1" d="M173.06632,73.61811c-.39737-1.06839-1.47721-1.43254-2.27973-1.98473a31.15413,31.15413,0,0,0-13.39512-5.25228c-5.0816-.73862-10.16283-.49047-15.24555-.65575-3.30247-.10737-6.63345-.23266-9.75746-1.4076a23.65631,23.65631,0,0,1-8.26709-5.32135c-.51657-.507-.7927-.48727-1.24455-.01106-2.92845,3.08623-5.90134,6.12652-8.69513,9.34334-1.97983,2.27963-4.22366,4.32772-6.30628,6.5204q-7.5648,7.96455-15.08829,15.96841Q86.31148,97.68338,79.847,104.55985q-8.544,9.07984-17.08764,18.15991c-4.86125,5.14767-9.80561,10.21823-14.5989,15.42815-2.77572,3.017-5.71316,5.87942-8.39682,8.98574-1.63429,1.89169-3.47,3.60954-5.22587,5.395a1.82319,1.82319,0,0,1-.51643.25959,21.832,21.832,0,0,1-.912-5.28215,113.86755,113.86755,0,0,1-.60445-17.45667,101.87285,101.87285,0,0,1,3.54925-22.16615,99.98163,99.98163,0,0,1,7.59641-19.1651A93.111,93.111,0,0,1,54.14684,72.66847,90.93729,90.93729,0,0,1,66.89441,59.79906,86.43158,86.43158,0,0,1,91.53649,45.0793a82.41718,82.41718,0,0,1,15.33613-4.40311,84.8096,84.8096,0,0,1,25.02018-.99873A89.34206,89.34206,0,0,1,149.487,43.42819a86.84842,86.84842,0,0,1,16.78439,7.51864A85.4212,85.4212,0,0,1,178.79244,59.76c.58481.50348,1.64321.52045,1.76865,1.452a4.73507,4.73507,0,0,1-.717,2.25233q-1.69731,4.33086-3.4403,8.64376c-.24423.60761-.54834,1.1196-1.37694,1.058A4.66994,4.66994,0,0,0,173.06632,73.61811Z" transform="translate(0 0)"/><path class="cls-1" d="M172.84285,83.47688c.19763.726.44784,1.44236.58417,2.17975.7502,4.05795-1.48231,8.66968-6.56158,8.76851-3.00129.0584-5.48482-1.34948-6.46583-5.25863a7.24034,7.24034,0,0,1,4.80618-8.8353,8.84181,8.84181,0,0,1,3.77565.01741q-.20472.90987-.40986,1.81976c-.08184.35964-.38994.73385.052,1.06159a1.0344,1.0344,0,0,0,1.209-.022c.23862-.13246.47167-.275.70725-.4129l.21661.29167c-.143.133-.29372.25877-.42678.40107-.14635.15651-.48794.21966-.3575.52122.12272.28375.42611.32575.70778.33342C171.52387,84.36543,172.103,83.71887,172.84285,83.47688Z" transform="translate(0 0)"/><path class="cls-1" d="M182.359,62.89694c2.37924,2.09425,4.44275,4.34425,6.54632,6.55385.36525.38366.29727.68468-.14688.94551q-4.50878,2.648-9.014,5.30194a.56638.56638,0,0,1-.66237-.01663,2.27936,2.27936,0,0,1-.73179-2.91632c1.29149-2.90743,2.5197-5.84176,3.57626-8.84508C182.03924,63.59983,182.19039,63.293,182.359,62.89694Z" transform="translate(0 0)"/><path class="cls-3" d="M170.90938,82.51107a18.741,18.741,0,0,1,2.41777-6.89844c.846-1.41376.96472-1.41516,2.0257-.26263.29467.32011.62092.61207.94217.90657a2.38707,2.38707,0,0,1-.09282,3.90948,14.04845,14.04845,0,0,1-4.704,2.42109Z" transform="translate(0 0)"/><path class="cls-2" d="M221.2699,142.7539a3.71041,3.71041,0,0,0,1.77961,1.192c.46518.22778.87433.551.81777,1.1392-.05131.53379-.46455.70751-.93215.87065-2.02227.70547-2.01708.71968-.781,2.60512.12708.19386.25312.38849.3747.58581.33584.545.71086,1.18224.21437,1.71779-.442.47684-.97183-.08688-1.4481-.24229-.33214-.10839-.63411-.31994-1.00957-.22872.26469-1.87689.53718-3.75274.78991-5.63126C221.165,144.09607,221.20647,143.4235,221.2699,142.7539Z" transform="translate(0 0)"/><path class="cls-2" d="M37.4367,183.31381a3.746,3.746,0,0,0-2.28368.24434c-.42351.10422-.73925.22024-1.03209-.1537a1.26859,1.26859,0,0,1-.35384-1.32483,14.37566,14.37566,0,0,0,1.06494-3.77628Q36.13436,180.8086,37.4367,183.31381Z" transform="translate(0 0)"/><path class="cls-2" d="M211.43393,82.51923c.713-.15532,1.42262-.32849,2.13978-.46124a1.03766,1.03766,0,0,1,1.17165,1.41957,12.7054,12.7054,0,0,1-1.40625,3.13126A30.09118,30.09118,0,0,1,211.43393,82.51923Z" transform="translate(0 0)"/><path class="cls-2" d="M154.16381,229.74934a17.36758,17.36758,0,0,1-.9613,3.07432,1.09833,1.09833,0,0,1-.97516.71241c-.3387.04189-.5584-.35115-.72646-.67408-.37258-.71592-.76378-1.42213-1.14741-2.13229C151.6796,230.62085,152.82613,229.81326,154.16381,229.74934Z" transform="translate(0 0)"/><path class="cls-2" d="M127.75026,234.80086a8.5586,8.5586,0,0,1-1.77915,2.83093c-.65575.80194-1.32687.58142-1.53776-.4307a6.24813,6.24813,0,0,1-.45512-2.39756Z" transform="translate(0 0)"/><path class="cls-2" d="M141.04927,233.337c-.35312.82316-.655,1.674-1.07873,2.459-.25071.46446-.59213.98463-1.27413.90672-.66371-.07583-.67554-.6694-.85793-1.12565-.23039-.57635-.46689-1.15027-.70074-1.72526A28.07579,28.07579,0,0,1,141.04927,233.337Z" transform="translate(0 0)"/><path class="cls-2" d="M124.20575,24.71854a13.01883,13.01883,0,0,1,1.84876-2.64941.85868.85868,0,0,1,1.63019.35473,6.64272,6.64272,0,0,1,.33039,2.30161Q126.11041,24.722,124.20575,24.71854Z" transform="translate(0 0)"/><path class="cls-2" d="M110.76545,25.44361c.46108-.846.834-1.7334,1.36647-2.55013a1.09287,1.09287,0,0,1,1.0245-.57458c.5918-.023.73479.42734.867.80355.22706.64609.35424,1.32732.52333,1.99382A30.67422,30.67422,0,0,1,110.76545,25.44361Z" transform="translate(0 0)"/><path class="cls-2" d="M97.8066,27.85172A7.74683,7.74683,0,0,1,98.882,25.03691c.475-.85481,1.26242-.75229,1.67242.14249.2908.63465.56283,1.2779.84321,1.91733A16.03072,16.03072,0,0,1,97.8066,27.85172Z" transform="translate(0 0)"/><path class="cls-2" d="M27.12528,157.63244c-.34878-.15492-.69-.33057-1.04769-.46105-1.32558-.48358-1.654-1.25868-.99012-2.47837a3.92471,3.92471,0,0,1,1.06784-1.47481A29.71264,29.71264,0,0,1,27.12528,157.63244Z" transform="translate(0 0)"/><path class="cls-2" d="M220.05816,109.14848c.72054.29848,1.61672.06328,1.98436,1.23525.46381,1.4786-.71846,1.95122-1.26818,2.82423Z" transform="translate(0 0)"/><path class="cls-2" d="M61.05609,211.9644c-2.23092.13708-4.45194-1.75075-4.45942-3.79047,1.40464.87527,2.44407,2.181,3.74355,3.18071C60.58835,211.54553,60.81794,211.76053,61.05609,211.9644Z" transform="translate(0 0)"/><path class="cls-2" d="M189.89123,52.32105a3.97922,3.97922,0,0,1,3.766,3.99351A35.19669,35.19669,0,0,1,189.89123,52.32105Z" transform="translate(0 0)"/><path class="cls-1" d="M170.90938,82.51107l.58886.07607-.7418.49961-.21661-.29167Z" transform="translate(0 0)"/><path class="cls-2" d="M43.90407,193.61284l-.26961-.31634C43.90722,193.2459,43.9165,193.42012,43.90407,193.61284Z" transform="translate(0 0)"/><path class="cls-2" d="M31.67926,171.29692l-.26819-.30029C31.709,170.91032,31.68012,171.11614,31.67926,171.29692Z" transform="translate(0 0)"/><path class="cls-2" d="M97.63972,27.98753q.09624-.07846.19259-.15681Q97.73613,27.90923,97.63972,27.98753Z" transform="translate(0 0)"/><path class="cls-2" d="M219.34177,105.55813l.24953.22521C219.31605,105.92132,219.39162,105.67016,219.34177,105.55813Z" transform="translate(0 0)"/><path class="cls-2" d="M220.30856,150.36961l-.22009.17663Z" transform="translate(0 0)"/><path class="cls-2" d="M92.3132,230.01068l-.20733-.23984C92.22558,229.807,92.37887,229.81409,92.3132,230.01068Z" transform="translate(0 0)"/><path class="cls-2" d="M112.44872,234.56775l-.17234-.22038Z" transform="translate(0 0)"/><path class="cls-2" d="M79.12074,225.43808a5.22927,5.22927,0,0,1,.52572.00215c1.06407.14442,2.53982.42072,2.65216,1.32366.12782,1.02734-1.02088,2.02267-1.91425,2.75334-.759.62073-1.51712.05894-2.23175-.35134-.91658-.52626-1.75166-1.2572-1.34335-2.32014A2.0613,2.0613,0,0,1,79.12074,225.43808Z" transform="translate(0 0)"/><path class="cls-2" d="M26.8724,171.62531a1.45318,1.45318,0,0,1,.80755-1.54582,1.97912,1.97912,0,0,1,2.27119.34073,6.27929,6.27929,0,0,1,1.9295,3.155c.111.30794-.06391.47025-.36666.61465a11.92931,11.92931,0,0,1-3.07028.56973c-.42585.08152-.6666-.4768-.89522-.81981A3.78311,3.78311,0,0,1,26.8724,171.62531Z" transform="translate(0 0)"/><path class="cls-2" d="M21.605,154.4027c.02291-.44975-.14014-.98769.53507-1.135a1.34594,1.34594,0,0,1,1.53665.82765,6.157,6.157,0,0,1,.52867,1.76225c.07832.43986.20926,1.10152-.41732,1.18171-.57687.07382-1.37329.434-1.72412-.49732A4.90451,4.90451,0,0,1,21.605,154.4027Z" transform="translate(0 0)"/><path class="cls-2" d="M71.171,224.95924a3.71934,3.71934,0,0,1-2.801-2.08943,2.13249,2.13249,0,0,1,2.32331-2.42464,5.31715,5.31715,0,0,1,3.02888,1.39588c.17748.17947.53684.356.26574.6757-.6626.78153-1.35708,1.53614-2.04422,2.2966C71.72255,225.05816,71.41726,224.91835,71.171,224.95924Z" transform="translate(0 0)"/><path class="cls-2" d="M22.79968,131.29368a2.58312,2.58312,0,0,1-.99035,2.38977,1.44463,1.44463,0,0,1-1.66629-.0298,3.68656,3.68656,0,0,1-1.65492-2.8406c-.015-.3964.01221-.79452-.00574-1.19067a1.86959,1.86959,0,0,1,1.20231-1.97086,1.89217,1.89217,0,0,1,2.24462.91026A4.38418,4.38418,0,0,1,22.79968,131.29368Z" transform="translate(0 0)"/><path class="cls-2" d="M89.07855,233.59051a3.5519,3.5519,0,0,1-2.66531-.97231,1.7934,1.7934,0,0,1,.31167-2.94158c1.36246-.911,3.85013-.62463,4.7607.60786a1.8645,1.8645,0,0,1,.20566,1.89581,2.61529,2.61529,0,0,1-2.01969,1.40268A2.27689,2.27689,0,0,1,89.07855,233.59051Z" transform="translate(0 0)"/><path class="cls-2" d="M99.24345,232.39119a2.57168,2.57168,0,0,1,.59669.05023c1.47729.36166,2.50748,1.47417,2.2646,2.41843a3.3259,3.3259,0,0,1-3.59316,1.95328c-.07433-.01964-.14057-.07056-.215-.089-1.78915-.44253-2.49709-1.09365-2.3942-2.20582C96.01105,233.34364,97.39627,232.39621,99.24345,232.39119Z" transform="translate(0 0)"/><path class="cls-2" d="M56.62576,212.488c-.52013-.02695-1.07477-.14465-1.00638-1.05979a1.02273,1.02273,0,0,1,.7433-1.058c.40344-.10427,1.74752,1.139,1.645,1.51368C57.84329,212.485,57.29931,212.49262,56.62576,212.488Z" transform="translate(0 0)"/><path class="cls-2" d="M225.32,112.19749c.01573.65391.15587,1.34841-.66575,1.45826a1.27423,1.27423,0,0,1-1.40144-.99913,13.43019,13.43019,0,0,1-.53169-2.13492.70637.70637,0,0,1,.55527-.88531c.66811-.07984,1.40769-.10059,1.672.6997A4.01807,4.01807,0,0,1,225.32,112.19749Z" transform="translate(0 0)"/><path class="cls-2" d="M218.76827,91.63041c1.35978.00048,1.95038.46591,2.18372,2.13647.11757.8417.50016,1.9077-.77062,2.46148-1.20631.52569-1.93181-.20008-2.70609-.84519a2.08821,2.08821,0,0,1-.504-.78481C215.861,92.0045,215.48438,91.80264,218.76827,91.63041Z" transform="translate(0 0)"/><path class="cls-2" d="M174.51909,35.52339a2.30174,2.30174,0,0,1-2.67194,2.12978c-1.10942-.20785-2.47258-.51376-2.9-1.51128-.3526-.823.85581-1.51278,1.49014-2.16393.464-.47635.83667-1.21322,1.76712-.68746C173.25724,33.88542,174.33446,34.409,174.51909,35.52339Z" transform="translate(0 0)"/><path class="cls-2" d="M180.49165,42.95134a2.864,2.864,0,0,1-1.86083-.54388c-.60966-.44009-1.8999-.77325-1.59011-1.42912a4.6807,4.6807,0,0,1,2.56811-2.49667c1.06228-.31989,1.90476.715,2.59772,1.52127a1.56038,1.56038,0,0,1,.28694,1.83546A1.87421,1.87421,0,0,1,180.49165,42.95134Z" transform="translate(0 0)"/><path class="cls-2" d="M163.22713,33.12024a3.15308,3.15308,0,0,1-2.388-.8361,1.78156,1.78156,0,0,1-.01267-3.0891,3.972,3.972,0,0,1,4.63127.67221,1.701,1.701,0,0,1,.391,2.10842,2.0266,2.0266,0,0,1-1.92365,1.14619C163.72662,33.11078,163.52706,33.12024,163.22713,33.12024Z" transform="translate(0 0)"/><path class="cls-2" d="M152.68327,24.72812c1.41986-.00611,2.9608.89134,3.13336,1.82362.27612,1.4917-1.54025,3.0461-3.18238,2.69923a7.32372,7.32372,0,0,1-1.31351-.44043c-.86476-.36449-1.61947-.7953-1.50551-1.96344a2.01793,2.01793,0,0,1,1.7276-1.92558A4.17444,4.17444,0,0,1,152.68327,24.72812Z" transform="translate(0 0)"/><path class="cls-2" d="M222.44991,135.61954c-.00079-1.63842.70736-2.84956,1.6834-2.97128.8917-.11119,2.06469,1.13622,2.40321,2.48812a3.46164,3.46164,0,0,1,.05658,2.16016c-.30427.83969-.53326,1.67743-1.56481,1.80358-1.15735.1415-1.628-.76824-2.12191-1.55743A2.99932,2.99932,0,0,1,222.44991,135.61954Z" transform="translate(0 0)"/><path class="cls-2" d="M193.96522,53.99594c-.58752-.38519-1.39692-.66816-1.43461-1.51308-.03379-.75739.88224-.209,1.1681-.63471.4368.29369,1.33935.10675,1.16815,1.02123C194.77973,53.33476,194.68594,53.91066,193.96522,53.99594Z" transform="translate(0 0)"/><path class="cls-4" d="M75.12989,176.43932a12.89844,12.89844,0,0,1-3.67463,8.676c-1.31862,1.42789-2.61612,2.87905-4.003,4.23813-.53265.522-.39936.813.004,1.23934,2.58159,2.72924,5.16606,5.45588,7.72423,8.207.462.49681.80093.44964,1.19383-.01644.10227-.12133.21265-.23578.3183-.35432,1.65958-1.86241,1.65994-1.8628,3.2653-.01885a8.11129,8.11129,0,0,0,.6183.71944c.45059.40823.557.70382.04568,1.22889q-3.57837,3.67476-7.05233,7.45049c-.52008.56463-.85588.62649-1.27875-.01144a.79584.79584,0,0,0-.08036-.08879c-.6418-.70613-1.64581-1.33028-1.82908-2.14028-.20591-.91008.994-1.4993,1.62222-2.16072.71846-.75644.00961-1.06479-.3046-1.40707-2.49386-2.71673-5.02473-5.3995-7.54724-8.08987-3.33858-3.56074-6.85777-6.95-10.05591-10.64486-.98531-1.13837-1.09784-1.10558-2.21151-.06026-1.60372,1.50529-1.60374,1.50527-2.99753-.14706-1.34937-1.59967-1.36862-1.61821.12367-3.16822,3.50838-3.64418,6.77456-7.52722,10.56525-10.892a9.86516,9.86516,0,0,1,5.77928-2.53333c4.03252-.342,8.18945,3.00567,9.29963,6.78328A10.802,10.802,0,0,1,75.12989,176.43932Zm-10.15114-5.02745a3.66412,3.66412,0,0,0-2.02835.59525,29.00834,29.00834,0,0,0-6.11609,5.94685c-.4767.56925-.52191.92145.03118,1.48566,1.881,1.91882,3.691,3.90716,5.54773,5.85022,1.74728,1.82858,1.75618,1.81631,3.46364-.03325a39.39739,39.39739,0,0,0,3.83461-4.38781,5.483,5.483,0,0,0,.52394-5.97532C69.21067,173.01094,67.77173,171.44554,64.97875,171.41187Z" transform="translate(0 0)"/><path class="cls-4" d="M124.08426,121.27028c.00017-4.4996,2.20208-7.61839,5.48332-10.28553,3.04445-2.47466,6.13606-1.92191,9.23645-.49858a18.21,18.21,0,0,1,4.97036,3.78425c.57646.56608.616.92579.02639,1.535-3.08063,3.1834-6.11709,6.40963-9.164,9.62566-.71163.75114-1.40055,1.52378-2.10665,2.28026-.47066.50424-.4412.84487.126,1.347,4.18,3.70066,8.888,2.60728,11.90678-1.71458a15.61763,15.61763,0,0,0,2.28967-4.81333c.2226-.80963.40665-1.03889,1.34647-.77225,2.32569.65985,2.43693.59688,1.8353,2.83689a16.24926,16.24926,0,0,1-6.51155,9.62972,9.55338,9.55338,0,0,1-10.78364.34325,17.161,17.161,0,0,1-8.31288-10.338A17.1282,17.1282,0,0,1,124.08426,121.27028Zm3.73961-1.07127a9.44465,9.44465,0,0,0,1.53644,4.88047c.27745.4624.48231.39029.805.04611q4.04308-4.31159,8.10789-8.60276c.23739-.25141.44244-.5195.091-.80638-1.36815-1.11678-2.78618-2.07324-4.69619-1.94559C130.8773,113.95738,127.83106,117.42837,127.82387,120.199Z" transform="translate(0 0)"/><path class="cls-4" d="M119.83549,155.00985c-5.35239-.11878-9.10811-2.96026-11.73893-7.29295-2.73923-4.51122-2.98973-9.303-.1741-13.90827,1.9695-3.22134,4.80929-5.36916,8.78618-5.49472.92833-.0293,1.22875-.74286,1.71751-1.26262.47277-.50272.8119-.63941,1.38632-.0413,2.28807,2.38239,2.3147,2.3658.05641,4.74556-.51023.53767-.99609,1.05981-1.9109.87408-4.85549-.98578-8.90767,4.46288-7.62594,9.155a11.46278,11.46278,0,0,0,8.12525,8.50989c3.42785,1.02618,7.30559-1.40513,8.38785-5.08228a6.85686,6.85686,0,0,0-.02-4.3472c-.22849-.64324-.1029-.914.59222-1.06081a9.24517,9.24517,0,0,0,2.12624-.73453c.74755-.365.96024-.18508,1.1912.60184,1.88391,6.41859-2.27155,13.69785-8.75163,15.18908A13.34876,13.34876,0,0,1,119.83549,155.00985Z" transform="translate(0 0)"/><path class="cls-4" d="M83.78775,164.716a8.79881,8.79881,0,0,0-.105-1.36493,4.97952,4.97952,0,0,1,.89461-4.18156A28.69018,28.69018,0,0,1,87.857,155.5991c.30857-.31706.52594-.51206.9302-.0562.92366,1.04155,1.88909,2.04884,2.88193,3.02488.44345.43595.26968.72441-.05528,1.07239q-1.08411,1.16094-2.15456,2.33462c-.392.4271-.81207.38484-1.085-.06541-.49138-.81072-.70072-.382-1.03261.12666a6.28369,6.28369,0,0,0,.59866,7.14542c2.47357,2.66421,4.99759,5.2815,7.47858,7.93888.49225.52727.89546.70424,1.36619.02389a1.81792,1.81792,0,0,1,.30107-.36665c.71172-.59873,1.27673-1.98592,2.00836-1.78433,1.11113.30617,1.74861,1.62611,2.58885,2.51378.23338.24657.05464.36478-.13137.56q-3.90552,4.09992-7.77567,8.23348c-.36789.39279-.64468.39845-.957-.02949a4.05521,4.05521,0,0,0-.33474-.3406c-.6212-.66627-1.61007-1.26079-1.76114-2.02143-.16537-.83265,1.00352-1.36692,1.59279-2.02158.44508-.49448.39162-.76692-.046-1.22887q-5.22721-5.51686-10.399-11.08618c-.46141-.49537-.73564-.47261-1.22741.02088-.61849.62067-1.09028,1.83052-1.89253,1.71247-.67555-.0994-1.15106-1.23962-1.81831-1.795-.87477-.72813-.92336-1.29812-.07444-2.10571,1.37525-1.30827,2.683-2.691,3.9666-4.09062.55835-.60885.89412-.56873,1.41574.04543A3.809,3.809,0,0,0,83.78775,164.716Z" transform="translate(0 0)"/><path class="cls-4" d="M96.775,152.71871c-.55382.09319-.77655.56478-1.0748.91169-1.37342,1.59741-1.36262,1.60671-2.76582.06879-1.46715-1.608-1.47224-1.61273.04471-3.24947,1.12709-1.21609,2.32415-2.37243,3.38288-3.64466.55555-.66757.832-.59942,1.37251-.02188q6.32454,6.75828,12.69621,13.47242c1.13238,1.20059,1.12807,1.20466,2.28568-.09746,1.38916-1.5626,1.38916-1.5626,2.81124-.08858,1.576,1.63354,1.58205,1.63928.05471,3.25827-2.04582,2.16859-4.12474,4.30653-6.13807,6.50476-.49716.5428-.80983.56424-1.26762.04079a13.4647,13.4647,0,0,0-1.54176-1.63373c-.78134-.63659-.49-1.12038.046-1.6846,1.731-1.82186,1.7128-1.81554.01117-3.59872q-4.573-4.7921-9.12155-9.60744C97.33382,153.09974,97.18029,152.73172,96.775,152.71871Z" transform="translate(0 0)"/><path class="cls-4" d="M92.38126,141.33962a2.95992,2.95992,0,0,1-2.9788,3.15208,3.26578,3.26578,0,0,1-.06306-6.51973A3.05154,3.05154,0,0,1,92.38126,141.33962Z" transform="translate(0 0)"/><path class="cls-3" d="M64.97875,171.41187c2.793.03367,4.23192,1.59907,5.25666,3.4816a5.483,5.483,0,0,1-.52394,5.97532,39.39739,39.39739,0,0,1-3.83461,4.38781c-1.70746,1.84956-1.71636,1.86183-3.46364.03325-1.85671-1.94306-3.66669-3.9314-5.54773-5.85022-.55309-.56421-.50788-.91641-.03118-1.48566a29.00834,29.00834,0,0,1,6.11609-5.94685A3.66412,3.66412,0,0,1,64.97875,171.41187Z" transform="translate(0 0)"/><path class="cls-3" d="M127.82387,120.199c.00719-2.77064,3.05343-6.24163,5.84416-6.42815,1.91-.12765,3.328.82881,4.69619,1.94559.35145.28688.1464.555-.091.80638q-4.05809,4.29747-8.10789,8.60276c-.32272.34418-.52758.41629-.805-.04611A9.44465,9.44465,0,0,1,127.82387,120.199Z" transform="translate(0 0)"/></svg>